<?xml version="1.0" encoding="utf-8"?>
<!-- Generator: Adobe Illustrator 26.0.2, SVG Export Plug-In . SVG Version: 6.00 Build 0)  -->
<svg version="1.1" id="Capa_1" xmlns="http://www.w3.org/2000/svg" xmlns:xlink="http://www.w3.org/1999/xlink" x="0px" y="0px"
	 viewBox="0 0 612 492.9" style="enable-background:new 0 0 612 492.9;" xml:space="preserve">
<style type="text/css">
	.st0{fill-rule:evenodd;clip-rule:evenodd;fill:#FFFFFF;}
	.st1{fill:#FFFFFF;}
</style>
<g id="Layer_1">
	<path class="st0" d="M363.1,467.6c-0.2-3.6-0.9-7.2-1.9-10.6l-0.3-1.2c-0.1-0.5,0.3-0.9,0.8-1c0,0,0,0,0,0c0.5-0.2,1,0,1.2,0.5
		c0,0,0,0.1,0,0.1l0.3,2.2c0.5,2.7,1,5.4,1.4,8c0.1,0.7,0,1.3,0.1,2H363.1z"/>
	<path class="st0" d="M264.7,467.6l1.5-7.8l0.6-3.3c1.6-0.5,2-0.2,1.7,1.3c-0.6,3.2-1.3,6.5-2,9.8H264.7z"/>
	<path class="st0" d="M347.1,467.6c-0.5-2.6-1-5.3-1.6-7.9c-0.2-1.1,0.1-1.8,1-1.5c0.4,0.1,0.8,0.5,0.9,0.9c0.3,1.6,0.6,3.2,0.8,4.8
		s0.3,2.5,0.4,3.7H347.1z"/>
	<path class="st0" d="M280.1,467.6c0.1-2,0.3-4,0.5-6c0-0.5,0-1.1,0.1-1.6c0-0.9,0.5-1.2,1.2-1.1s0.9,0.4,0.8,1.4s-0.6,4.9-0.8,7.3
		L280.1,467.6z"/>
	<path class="st0" d="M297,467.6c0-2,0-4,0.1-6s0.2-1.2,0.9-1.2s1.2,0.3,1.1,1.2l-0.3,6H297z"/>
	<path class="st0" d="M331.1,467.6l-0.6-5.7c0-0.8,0.4-1.3,1.1-1.3s0.9,0.4,1,1.2l0.3,5.8H331.1z"/>
	<path class="st0" d="M313.6,467.6l-0.6-4.9c0-0.6,0.2-1.1,0.9-1.2c0.6-0.1,1.1,0.4,1.2,1c0,0,0,0.1,0,0.1c0.1,0.8,0.1,1.6,0,2.4
		v2.6H313.6z"/>
	<path class="st0" d="M118,355.3c-0.4-2-0.7-4.1-0.9-6.2c-0.1-1.7,0.3-3.3,2-4.2s3.8-0.3,4.6,1c0.8,1,1.4,2.2,1.7,3.5
		c0.5,2.2-0.3,4.5-2,5.9l-1.4,1.2c0.8,0.9,1.8,1.9,2.7,2.7c1.3,1.1,2.9,1.9,4.1,3s5.4,3.3,8.2,4.7s4.5,1.8,6.8,2.7
		c0.2,0.1,8,2.3,11.9,2.4s12.4-1.8,13.7-2.1c3.2-0.7,6.4-1.4,9.5-2.3l8.6-2.9l6.8-2.5c1.4-0.5,4.9-2.3,5.3-2.4l10.8-4.3
		c3.7-1.6,14.6-6.9,16.4-7.7s5.9-2.7,8.8-3.9s7.3-2.9,11-4.2c4.6-1.6,9.4-2.9,14.2-3.7c2.8-0.5,5.7-0.8,8.6-0.9
		c4.3-0.2,8.7,0,13,0.6c1.7,0.2,3.3,0.6,4.9,1c2.5,0.6,4.8,1.6,6.9,3.1c3.7,2.1,2.3,3,2.3,3c-2.1-1.2-4.3-2.2-6.5-3.1
		c-3.6-1.5-4.9-1.5-8.7-2.2c-2.2-0.4-4.5-0.5-6.7-0.5c-4.7-0.1-9.4,0.3-14,1c-2,0.3-3.9,0.8-5.9,1.3c-11.2,3.2-21.9,7.6-32.2,13
		c-3.7,1.9-7.6,3.4-11.4,5l-6.7,2.8l-4.7,1.8c-2.1,0.9-4.1,1.9-6.2,2.7l-10.3,3.5c-3.5,1.5-7.3,2.2-11,3.3c-1.3,0.4-2.7,0.6-4.1,0.9
		s-3.9,1-5.8,1.3c-5.4,1-10.9,0.7-16.1-1c-6.5-2.1-12.8-4.6-18.4-8.8c-2.6-1.8-5.1-3.8-7.4-5.9c-0.3-0.5-0.9-0.7-1.4-0.6
		c-2.8,0.5-5.5-0.3-8.1-1.2s-5-1.6-7.4-2.9c-3.2-1.7-6.1-4-8.5-6.7c-1.8-1.9-3.5-3.9-5-6c-1.2-1.8-2.3-3.6-3.3-5.5l-1.1-1.9
		c-1-1.9-2.1-3.7-3.1-5.5c-0.2-0.5-0.3-1-0.4-1.5c-0.4-2.4-1.1-4.6-2.1-6.8c-0.1-0.1-0.2-0.2-0.2-0.4c0-0.6,0-1.2,0.6-1.3
		c0.5,0,1,0.3,1.2,0.7c0.5,1.1,0.9,2.2,1.2,3.3c0.5,1.7,0.9,3.3,1.5,4.9c0.4,1.3,1,2.6,1.8,3.8c1,1.7,2.1,3.4,3.2,5.1
		s2.2,3.9,3.6,5.7c1.6,2,3.3,3.9,5.1,5.7c2.6,2.7,5.8,4.7,9.3,6c3.1,1,6.1,2.4,9.4,2.6L118,355.3z M120.5,354.6
		c2.5-1,3.7-3.9,2.7-6.4c-0.2-0.5-0.5-1-0.9-1.4c-0.6-0.5-1.4-0.7-2.2-0.4c-0.7,0.1-1.1,0.7-1,1.4c0,0,0,0,0,0
		C119.1,350.1,119,352.5,120.5,354.6L120.5,354.6z"/>
	<path class="st0" d="M97,298.6c1.7-0.1,2,0.2,1.6,1.3c-0.3,1-0.6,2-0.7,3c-0.3,3.2,0.6,6.3,2.6,8.8c1.3,1.4,2.6,2.8,4,4.1l2.6,2.2
		c2.3,2,5.4,3.2,8.4,4.5l5.3,2.2c2.5,0.7,5.2,1.2,7.8,1.3c7.3,0.7,14.7-0.1,22-0.8c4.6-0.3,9.2-1.1,13.7-2.1c3-0.7,5.9-1.6,8.8-2.4
		l5.7-1.6l6-2l10.5-3.5l4.2-1.5l11.4-4.4l14.7-5.7l7.6-2.5l8.3-2.7c5.6-1.8,11.4-3.2,17.2-4.2c5.4-0.9,10.9-1.2,16.3-0.8
		c4.5,0.2,9,0.6,13.5,1.4c2.6,0.5,5.2,1.2,7.7,2c3.4,1,6.6,2.4,9.5,4.3l3.1,2.2c0.8,0.7,1.5,1.5,2.3,2.3c2.3-0.9,4.7-1.4,7.1-1.6
		c0,0.5,0,1,0.1,1.5c-0.9,0.7-2.1,0.4-3.1,0.7l-3,1.3c0.9,1.5,1.1,3.3,0.7,5c-0.3,1.6-2.7,3.1-4.7,3.1s-2.8-0.6-3.2-2.2
		c-0.3-1.7,0.3-3.4,1.7-4.5l2-1.6c0.5-0.3,0.5-0.6,0.2-1.1c-1.4-1.9-3.2-3.4-5.3-4.4c-4.8-2.5-10-4.3-15.3-5.2c-2-0.3-4-0.8-6-1
		s-5-0.3-7.5-0.5c-6.3-0.4-12.6,0.1-18.8,1.5c-2.8,0.5-5.6,1.1-8.4,1.9c-2.8,0.9-5.4,1.9-8.2,2.7l-6.6,2.1l-7.6,2.5
		c-3.1,1.2-6.2,2.3-9.3,3.6l-7.6,3l-3.4,1.3l-7.4,2.8l-15.6,5.3l-8.2,2.2c-3.2,0.9-6.3,1.9-9.5,2.6s-7.1,1.2-10.7,1.7
		s-6.3,0.7-9.4,0.9l-8.5,0.4c-3.4,0.1-6.8-0.1-10.1-0.5l-4.4-0.7h-0.6l-9-3.9c-2.9-1.3-5.6-3.1-7.9-5.3c-1.8-1.5-3.5-3.2-5-5.1
		c-1.3-1.8-2.2-3.8-2.8-5.9c-0.4-1.6-0.5-3.3-0.1-5C96,300.5,96.4,299.5,97,298.6z M310.3,307.3c-1,0.3-2,0.9-2.8,1.6
		c-0.4,0.5-0.7,1.2-0.7,1.9c-0.1,0.4,0.6,1.4,0.9,1.5c0.7,0.2,1.5,0.1,2.1-0.3c0.4-0.1,0.8-0.4,1-0.8
		C311.5,309.9,310.9,308.7,310.3,307.3L310.3,307.3z"/>
	<path class="st0" d="M373,340.3l0.8,0.2c2.1,1.5,4.6,1.7,7,2c4.8,0.4,9.6,0.3,14.3-0.3c1.8-0.3,3.6-0.8,5.4-1.4l8.1-2.6
		c4.8-1.8,9.4-4,13.8-6.5c4.9-2.7,9.8-5.6,14.6-8.7l5.6-3.8c1.9-1.3,4-2.5,5.9-3.9c3.9-2.6,7.8-5.3,11.6-8.1s5.8-4.3,8.8-6.3
		s7.7-5,11.3-7.7c2.6-2,5.3-3.8,8.1-5.5c3.6-2.2,7.5-4.1,11.4-5.7l9.9-3.3c2.5-0.8,5.2-0.9,7.8-1.3c2.9-0.4,5.8-0.4,8.7-0.1
		c4.5,0.3,8.6,2.8,10.8,6.7l0.3,0.7c0.4,1.5,0.8,3.1,1.3,4.6c0.5,1.9,0.2,4-0.6,5.8c-0.6,1.5-1.4,3-2.1,4.4
		c-1.1,1.9-2.5,3.5-4.3,4.7c-0.9,0.7-2.4,0.9-3.6,1.3c-0.4,0.1-0.9-0.1-1-0.6c0,0,0-0.1,0-0.1c-0.2-0.3-0.2-0.7,0.1-1
		c0.1-0.1,0.2-0.1,0.3-0.1l0.6-0.2c3.4-0.7,5.4-3.1,6.8-6c0.6-1.3,1.2-2.6,1.6-3.9c0.5-1.5,0.4-3.1-0.1-4.5c-0.2-0.7-0.4-1.3-0.5-2
		c-0.3-1.2-0.8-2.4-1.7-3.3c-1.6-1.9-3.6-3.3-5.9-4.1c-4.2-1.4-8.3-1.1-12.6-0.2l-4.1,0.7l-6.5,1.3c-1.4,0.3-2.7,0.8-3.9,1.5
		c-1.8,0.8-3.6,1.7-5.3,2.7c-3.9,2.2-7.8,4.3-11.5,6.7s-6.6,4.7-9.9,7.1l-2.7,1.9l-6.6,4.5l-3.8,2.7l-10.4,7.4
		c-3.8,2.6-7.7,5-11.6,7.5s-6.1,4.1-9.2,6s-3.6,2.1-5.4,3.1s-6.3,3.7-9.5,5.3c-2.4,1.1-4.9,2.1-7.4,3c-3,1-6,1.8-9,2.6
		c-3.4,1-6.9,1.4-10.4,1.2c-2.1-0.1-4.3,0.2-6.5,0c-2.4-0.3-4.8-0.7-7.1-1.2c-1.8-0.4-1.7-0.6-1.7-2.4L373,340.3z"/>
	<path class="st0" d="M291.9,451l-2.1-0.2v-2.9c-0.2-4.8-0.3-9.5-0.4-14.2l-0.3-13.3l-0.6-22.9c-0.2-7.4-0.5-14.9-0.6-22.4
		c-0.2-4.6-0.2-9.2-0.4-13.7c-0.1-6.6-0.3-13.3-0.5-19.9v-0.3c0-0.6,0-1.2,0.7-1.3s1.1,0.5,1.1,1.3s0,3.4,0,5.1
		c0.1,4.5,0,9,0.1,13.5l0.6,23.3l0.6,22.4l0.3,9.2c0.1,4,0.1,7.9,0.3,11.9l0.6,16.5C291.4,445.7,291.7,448.2,291.9,451z"/>
	<path class="st0" d="M276.4,415.1c0.1,5.9,0.2,11.9,0.4,17.9c0,3.3,0.2,6.6,0.3,9.9c0.1,0.8,0.2,1.7,0.4,2.5
		c0.1,0.6,0.1,1.1,0.1,1.7c-0.1,0.7-0.6,1.2-1.3,1.1c0,0,0,0,0,0c-0.7,0-1-0.4-1-1.2s0.2-1.3,0.2-2l-0.3-15.3
		c-0.1-5.3-0.2-10.6-0.2-15.9c-0.2-7.7-0.3-15.5-0.4-23.3c-0.1-4.3-0.4-8.5-0.5-12.8s0-6.7-0.1-10.1c-0.1-6.5-0.3-12.9-0.4-19.4
		c-0.1-3.4-0.1-4.5-0.1-7.9c-0.1-0.5-0.1-1-0.1-1.5c0-0.6,0.4-1,1-1c0,0,0.1,0,0.1,0c0.7,0.1,0.9,0.6,0.9,1.2s-0.2,2.2-0.2,4
		s-0.1,5.4,0,8c0,4.2,0.1,8.4,0.1,12.5l0.3,17.8c0.1,5,0.3,10.1,0.5,15.1s0,7.8,0.1,11.7C276.2,410.4,276.4,412.7,276.4,415.1
		L276.4,415.1z"/>
	<path class="st0" d="M263.4,446.8l-1.9-0.5c0-0.7-0.1-1.4-0.1-2.1l-0.3-16c0-3.8-0.1-7.7-0.2-11.6l-0.3-13.7l-0.3-15.2l-0.6-27.6
		c-0.1-5.7-0.1-7.3-0.2-12.9c0-1.7-0.2-4.3-0.3-5.9s0.6-1.6,1.6-1.2s0.6,0.7,0.6,1.2c-0.2,3.6-0.4,4.1-0.4,7.7
		c0.1,8,0.3,16.1,0.4,24.2l0.3,14.9l0.3,13.6l0.3,12.5c0.1,4.5,0.1,9,0.3,13.6s0.3,6.4,0.4,9.6S263.3,443.6,263.4,446.8z"/>
	<path class="st0" d="M245.5,441.3c0-2.8,0.1-5.4,0-8s-0.1-3.6-0.1-5.4l-0.3-10.3c-0.1-3.3-0.1-6.5-0.1-9.8s-0.3-9.1-0.4-13.7
		s-0.1-10.7-0.2-16.1s-0.2-8.2-0.2-12.4c-0.2-6.3-0.3-12.6-0.4-19c-0.1-0.5-0.1-1,0-1.5c0-0.5,0.1-1,0.4-1.4
		c0.4-0.2,0.9-0.3,1.3-0.2c0.4,0,0.6,0.5,0.5,0.9c-0.7,2.7-0.4,5.3-0.4,8c0,4.8,0.2,9.6,0.3,14.5s0,12.2,0.1,18.4s0.3,10.1,0.4,15.2
		v1.6c0,3.8,0.1,7.6,0.2,11.3s0.1,5.3,0.2,7.9l0.3,12.6l0.3,2.8c0.2,0.9,0.2,1.8,0.1,2.7c-0.1,0.3,0,0.7,0.1,1
		c0.2,0.5,0.2,0.9-0.2,1.2c-0.4,0.3-1,0.3-1.4,0L245.5,441.3z"/>
	<path class="st0" d="M308.4,451.1h-2.1c-0.1-1.9-0.1-3.8-0.2-5.7l-0.3-13.4l-0.6-19.8c-0.1-3.8-0.3-7.5-0.5-11.2s-0.2-6.6-0.2-9.9
		c-0.2-6.6,1.1-6.6,1.3-1.6s0.3,7.6,0.4,11.4s0.1,5.7,0.2,8.6s0.4,6.4,0.5,9.6l0.3,11.1c0.2,4.3,0.3,8.6,0.4,12.8
		c0.1,2.1,0.3,4.2,0.4,6.3C308.1,449.9,308.3,450.4,308.4,451.1z"/>
	<path class="st0" d="M395.7,434.1c0-0.5-0.1-1-0.1-1.4c-0.1-2-0.3-3.9-0.4-5.8s0-4.7-0.1-7s-0.3-5.6-0.4-8.4s-0.1-4.8-0.2-7.2
		c-0.3-6.6-0.6-13.2-0.8-19.8c-0.2-4.7-0.4-9.4-0.7-14.1s-0.5-11.1-0.8-16.7l-0.3-5c0-0.2,0-0.5,0.1-0.7c0.2-0.3,0.5-0.6,0.7-0.6
		s0.7,0.2,0.9,0.4c0.2,0.3,0.3,0.7,0.3,1.1l0.3,14.9c0.1,3.2,0.4,6.5,0.5,9.7l0.6,13.2c0.2,6.1,0.5,12.2,0.8,18.3s0.4,9.7,0.7,14.5
		c0.1,2.6,0.1,5.3,0.3,7.9c0.1,1.7,0.2,3.4,0.5,5.1C397.8,434,397.6,434.3,395.7,434.1z"/>
	<path class="st0" d="M381.2,439.7l-1.8,0.5c-0.2-0.2-0.3-0.5-0.3-0.8c-0.1-4.9-0.1-9.8-0.3-14.6s-0.3-6.8-0.4-10.1
		s-0.1-5.1-0.2-7.7l-0.9-21.5c-0.1-4.3-0.2-8.5-0.4-12.7s-0.3-7.8-0.5-11.7l-0.3-6.3l0.7-0.5c1-0.4,1.5,0,1.4,1s-0.1,4-0.1,6.1
		s0.1,4.5,0.2,6.8l0.3,11.6c0.1,3.3,0.3,6.7,0.4,10c0.2,5.4,0.3,10.7,0.5,16c0.1,3.2,0.4,6.4,0.5,9.6c0.3,6,0.5,11.9,0.8,17.8
		C380.8,435.3,381,437.4,381.2,439.7z"/>
	<path class="st0" d="M229,434.5l-1.9-0.9v-17.4c0-7-0.1-14-0.2-21.1c0-4.9,0-9.7-0.1-14.6c0-7.9-0.1-15.9-0.2-23.8v-2.6
		c-0.1-0.5,0.3-0.9,0.8-1c0.1,0,0.1,0,0.2,0c0.6,0,1.1,0.6,1,1.2c0,0,0,0.1,0,0.1v0.3c0,2.2-0.1,1.5-0.1,3.7s0.1,5,0.1,7.5
		s-0.1,5.2-0.2,7.8v21c0,2.9,0,5.8,0.1,8.7c0,5.1,0.1,10.2,0.2,15.4s0.2,7.8,0.3,11.7C229.1,431.8,229,433,229,434.5z"/>
	<path class="st0" d="M273.5,47.4c0,3.9-0.1,7.4-0.1,11c0,8.1,0.2,16.2,0.3,24.2l0.3,24l0.3,13c0.1,8.2,0.2,16.4,0.4,24.5
		s0.3,17.9,0.5,26.8c0,2.7,0.1,5.3,0.1,8s-0.3,2.3-1.1,2.3s-0.9-0.7-0.9-2.3c-0.2-10.6-0.3-21.3-0.4-31.9
		c-0.3-16.3-0.5-32.6-0.7-48.9c-0.1-9-0.3-17.9-0.4-26.9c-0.1-5.6-0.1-11.3-0.1-16.9c0-1.6,0.1-3.2,0.3-4.8
		C272.1,47.8,272.6,47.4,273.5,47.4z"/>
	<path class="st0" d="M364.9,370.6c0.1,0.3-0.1,16,0.1,21.2c0.1,2,0.3,4.1,0.4,6.1s0.1,4.4,0.2,6.6c0.2,5.5,0.5,11.1,0.7,16.6
		c0.2,3.9,0.2,7.9,0.4,11.9s0.5,6.2,0.7,9.3c0.2,1.4,0,1.7-1.7,1.6c-0.1-0.5-0.2-1-0.2-1.5l-0.3-9.9l-0.3-10.1l-0.6-14.8l-0.6-16.8
		c-0.1-4.1-0.3-8.1-0.5-12.2s0,2.1-0.1-2.4c-0.1-1.9,0.1-2.1-0.1-3.9S363.1,370.5,364.9,370.6z"/>
	<path class="st0" d="M427,332.8c1.2-0.1,1.2,1.5,1.2,2c0.1,3.6-0.1,1.1,0.1,4.7s0.3,9.5,0.5,14.3s0.7,10.5,1,15.8
		c0.1,2.4,0.2,4.8,0.4,7.2c0.2,4.4,0.4,8.7,0.7,13.1s0.4,9,0.9,13.5c0,1.5,0.1,3.1,0.3,4.6c0.2,0.5,0,1.1-0.5,1.3
		c-0.1,0.1-0.3,0.1-0.4,0.1c-0.7,0-0.9-0.3-1-1.2l-0.3-6.2c-0.1-2.3-0.3-4.6-0.4-6.9s-0.1-5.6-0.2-8.3c-0.3-4.7-0.6-9.3-0.8-14
		l-1.2-21.2c-0.1-3-0.2-6.1-0.4-9.1s-0.2-3-0.5-7.2C426.4,335.1,426.1,332.9,427,332.8z"/>
	<path class="st0" d="M412.9,422.6c-0.1-2.3-0.1-4.6-0.2-6.9l-0.6-16.4c-0.2-4.7-0.6-9.3-0.8-14s-0.7-12-0.9-18s-0.5-12.6-0.7-18.9
		c-0.2-2.7-0.4-3.1-0.6-5.8c0-0.5,0-1,0.6-1.2s1.4,0.4,1.4,1.3v-0.2c0,2.5,0,5,0.1,7.5l0.6,16.1l0.9,19c0.3,4.8,0.4,9.5,0.6,14.3
		s0.5,8.7,0.8,13.1l0.3,7.9c0.1,0.3,0,0.7,0.1,0.9s0.4,1.1-0.2,1.5S413.9,423.1,412.9,422.6z"/>
	<path class="st0" d="M246.2,153.2l-0.3-34.7c-0.2-12-0.4-24-0.5-36c-0.1-4.7-0.1-9.4-0.1-14.1l-0.3-11v-0.2c0-1.6,0.4-2.8,1-2.8
		s1.2,1.2,1.2,3c-0.1,4.1-0.3,8.2-0.3,12.3c0.1,7.7,0.3,15.4,0.4,23.1c0.1,2.8,0.1,5.6,0,8.4c-0.2,8.2,0,16.3,0.3,24.4
		c0.2,4.7,0,9.4,0.1,14.1c0.1,8.3,0.2,16.6,0.4,24.8c0,5.1,0.1,10.2,0.3,15.2c0,2.6,0.2,5.1,0.3,7.6c0,0.7,0,1.4-0.2,2.1
		c-0.3,0.8-0.7,2-1.3,1.3c-0.4-0.7-0.6-1.5-0.6-2.3c-0.1-8.8-0.1-17.6-0.2-26.5v-8.7L246.2,153.2z"/>
	<path class="st0" d="M214.2,426.3l-1.1,0.5c-0.5,0.1-1.1-0.2-1.2-0.8c0-0.1,0-0.1,0-0.2c0-0.9,0.2-1.7,0.2-2.6v-54.6
		c0-3.8,0.1-4.6,0.1-8.3c0-0.5,0.2-1,0.6-1.3c0.3-0.2,0.8-0.2,1.1,0c0.3,0.2,0.4,0.5,0.4,0.8c-0.2,5.9-0.4,8.8-0.5,14.7
		s0,12.4,0,18.7c0,3-0.1,6.1-0.1,9.1s0.1,6.9,0.1,10.3c0,1.7-0.2,3.5-0.1,5.2s0.3,4.6,0.5,6.9V426.3z"/>
	<path class="st0" d="M218.5,69.3c-0.1,3.4-0.3,6.8-0.3,10.1v52.8c0,6.2-0.1,12.4,0,18.5c0,4.2-0.1,8.3,0.1,12.4
		c0.4,6.2,0.2,12.5,0.2,18.7c0.1,3.8,0.3,7.7,0.4,11.5c0,1.1-0.6,2.2-1.3,2.2s-0.8-1.1-0.8-2c-0.1-4.7,0-9.5,0-14.3
		c-0.1-9.8-0.1-19.7-0.2-29.6v-20.1c-0.1-9.7-0.1-19.4-0.1-29.1V81.7c0-2.3-0.1-4.7-0.1-7s0.2-3.6,0.3-5.5V69
		c0.2-1.5,0.7-2.3,1.3-2.1S218.6,68.3,218.5,69.3z"/>
	<path class="st0" d="M205.2,139.3V84.8c-0.1-3.5,0.2-7,0.9-10.5c0.2-1.5,0.7-2,1.3-1.7s1,1.4,0.7,2.9c-1,4.7-1,9.5-1,14.4
		c-0.2,11.8-0.3,23.6-0.4,35.4c0,5.6,0.1,11.2,0.2,16.7c0,1.4-0.1,2.8-0.1,4.2c-0.1,7.6-0.1,15.2-0.1,22.9c0,5.6,0.1,11.2,0.1,16.7
		c0.1,3.1,0.1,6.1,0.1,9.1c0,0.4-0.1,0.9-0.2,1.3c-0.3,0.5-0.7,1.2-1.1,1.2s-0.7-0.8-0.7-1.8v-7.4c0-6.9,0.1-13.8,0.1-20.7v-28.2
		H205.2z"/>
	<path class="st0" d="M441,325c0-0.9,1.4-2.1,1.9-0.5c0,1.7,0,3.3,0.2,5c0.3,6.4,0.5,12.9,0.8,19.3l0.6,13.2l0.6,11.8l0.6,13.4
		c0.2,3.3,0.3,6.6,0.5,9.9c0,0.5-0.1,1-0.2,1.5l-1.3-0.2C443.5,371.7,442.2,351.7,441,325z"/>
	<path class="st0" d="M231.4,60.3c0.1,2.6,0.4,5,0.4,7.4c0,7.3-0.1,14.5-0.1,21.8l0.3,33l0.3,24.3l0.3,11.5
		c0.1,7.8,0.1,15.7,0.2,23.5c0,2.3,0.2,4.6,0.3,7s0.2,2.7,0.3,4.1s-1.2,1.4-1.7,0.7c-0.4-0.8-0.6-1.8-0.5-2.7
		c0.2-12.5-0.3-24.9-0.4-37.3s-0.2-23.2-0.4-34.8l-0.3-24l-0.3-29c0-0.8-0.1-1.5-0.1-2.3S229.8,60.7,231.4,60.3z"/>
	<path class="st0" d="M261.9,50.1c0,11.6-0.1,23,0,34.5s0.3,24.2,0.5,36.3c0,7.3,0,14.7,0.1,22s0.3,17.5,0.5,26.3
		c0.1,4.9,0.3,9.8,0.4,14.8c-0.1,0.6-0.2,1.2-0.5,1.7c-0.3,0.4-0.7,0.4-1.2,0.7c-0.2-0.8-0.3-1.5-0.4-2.3v-22.4
		c-0.1-10.5-0.3-21.1-0.4-31.7c-0.1-6.2-0.1-12.4-0.2-18.6c-0.2-13.5-0.4-27.1-0.5-40.6c0-5.6,0.1-11.3,0.2-16.9
		c0-0.6,0-1.1-0.1-1.7C260.1,49.4,260.3,49,261.9,50.1z"/>
	<path class="st0" d="M323.7,451.1l-2.1,0.2c0-0.6-0.1-1.1-0.1-1.5c0-3.8,0-7.7-0.1-11.5s-0.3-7.4-0.5-11.1s-0.1-4.8-0.1-7.2
		s-0.3-7.6-0.5-11.3s-0.3-8.6-0.4-12.8c-0.2-6.3-0.3-7.2-0.4-13.5c-0.1-0.5-0.1-1.1-0.2-1.7s1.3-0.9,1.5,0.5
		C321.9,406.6,322.2,425.8,323.7,451.1z"/>
	<path class="st0" d="M290.5,175.4c-0.2,0.3-0.4,0.7-0.6,1c-0.4,0.2-0.9,0.5-1.3,0.2c-0.3-0.5-0.5-1.1-0.5-1.7
		c-0.2-11.5-0.2-22.9-0.4-34.4l-0.3-19.3c-0.3-12.4-0.4-24.8-0.7-37.2s-0.4-23.3-0.7-34.9c0-0.6,0-1.1,0.1-1.7
		c0.2-1.3,1-1.9,1.7-1.4s0.7,0.9,0.6,2.6c-0.2,4.2-0.4,8.5-0.5,12.8c0,6.6,0.2,13.2,0.3,19.8s0.2,12.8,0.4,19.3
		c0.1,10.3,0.3,20.7,0.5,31c0.1,7,0.3,14,0.5,21s0.4,13.3,0.6,20C290.2,173.3,290.4,174.1,290.5,175.4z"/>
	<path class="st0" d="M352.6,446.7l-1.8,0.5c-0.1-1.6-0.1-3.1-0.1-4.5c-0.2-3.4-0.3-6.7-0.4-10.1l-0.3-10.2l-0.3-8.9
		c-0.2-3.9-0.3-7.7-0.4-11.6s-0.3-9.3-0.5-13.9c-0.1-1-0.1-2.1-0.1-3.1l-0.3-8.3c-0.1-0.4-0.1-0.9,0-1.3h1.4
		C350.9,399,351.3,422.8,352.6,446.7z"/>
	<path class="st0" d="M339.6,449.7l-1,0.3c-0.2,0.1-0.4,0-0.8,0v-2.6c0-3.2,0-6.4-0.2-9.6s-0.4-9-0.6-13.4s-0.3-7.3-0.4-11
		l-0.6-14.8c-0.2-6-0.4-12-0.7-18.1c0-1.3-0.1-2.7-0.2-4s0.1-0.8,0.1-1.2h1.3C337.5,400,338.6,424.8,339.6,449.7z"/>
	<path class="st0" d="M461.6,380c-0.2-0.3-0.3-0.7-0.3-1.1l-0.6-13.8l-0.6-13.4l-0.9-17.5c-0.3-4-0.5-8.1-0.8-12.1s-0.2-5.7-0.3-6.4
		s0.3-3.4,1.5-2.6s0.2,0.6,0.2,1c0.1,4.1-0.1,4,0.1,8.2s0.7,11.1,1,16.7c0.2,3.4,0.3,6.9,0.5,10.4c0.4,6.8,0.7,13.6,1.1,20.4
		c0.2,2.8,0.4,5.5,0.5,8.2C463.1,379,462.4,379.4,461.6,380z"/>
	<path class="st0" d="M302,45.6c0.9,0.6,0.9,1.6,0.9,2.6c-0.1,7.6-0.2,15.2-0.1,22.8c0.2,10.1,0.5,20.2,0.7,30.3
		c0.1,4.1,0,8.2,0.1,12.4l0.6,25.4c0.3,8.4,0.5,16.8,0.7,25.2c0,1.3,0.2,2.5,0.2,3.7s-0.5,2.7-1.1,2.6s-0.9-1.1-0.9-2.3
		c-0.1-3.9-0.1-7.8-0.2-11.8c-0.2-14.1-0.5-28.2-0.8-42.3l-0.6-35.7c-0.2-7.1-0.3-14.3-0.5-21.4c0-0.5,0.1-1.1,0.2-1.6
		c0.6-2.8,0.8-5.6,0.7-8.4C301.9,46.6,301.9,46.1,302,45.6z"/>
	<path class="st0" d="M316.1,46.5c1.4,0.1,1.5,0.2,1.5,2.2c0,5.3-0.1,10.6,0,16c0.1,8.5,0.2,17.1,0.4,25.7s0.3,17.3,0.5,25.9
		c0.1,4,0.3,7.9,0.4,11.9c0.2,7.3,0.3,14.7,0.5,22c0.1,3.7,0.4,7.3,0.5,11c0.1,0.7,0,1.5-0.2,2.2c-0.7,1.5-1.6,1-1.8-0.8
		c-0.2-1.4-0.2-2.8-0.2-4.2l-0.3-17.3c-0.1-3.7,0-7.4-0.1-11.1c-0.2-7.9-0.4-15.7-0.5-23.6s-0.4-17-0.5-25.5
		c-0.2-7-0.4-13.9-0.5-20.9C315.8,55.5,316,51,316.1,46.5z"/>
	<path class="st0" d="M333,48.7c0,4.1-0.1,8-0.1,11.9s0.2,7.8,0.2,11.6s0,5.1,0.1,7.6l0.6,32.6c0.1,8.2,0.2,16.5,0.4,24.7
		c0.2,5.9,0.5,11.9,0.8,17.8c0.1,0.5,0.1,1,0,1.5c-0.1,1-0.6,1.5-1.1,1.4s-1-0.7-1-1.9c0-3.5-0.1-6.9-0.2-10.4
		c-0.1-11.3-0.2-22.7-0.4-34L331.7,77c-0.2-7.7-0.3-15.4-0.5-23c0-1.1-0.2-2.1-0.2-3.1c0-1,0.1-2,0.4-2.9
		C331.9,47.2,332.5,48.1,333,48.7z"/>
	<path class="st0" d="M199,418.8c-0.8-0.2-1.4-0.9-1.3-1.8c0-8.4-0.1-16.7,0-25.1c0-6.9,0.1-13.9,0.2-20.9v-5.3
		c-0.1-0.3-0.1-0.6,0-0.9c0.1-0.5,0.5-0.8,1-0.7c0.1,0,0.1,0,0.2,0c0.5,0.1,0.6,0.4,0.6,0.9v0.7c-0.1,1.8-0.2,3.6-0.2,5.5
		c-0.1,4-0.1,8-0.1,12c0,6.5-0.1,12.9-0.1,19.3l0.3,11.5c0,1.1-0.3,2.2,0.3,3.4S199.6,418.5,199,418.8z"/>
	<path class="st0" d="M346.3,135c-0.1-9.5-0.3-19-0.5-28.5s-0.5-20.9-0.7-31.3c-0.2-7.8-0.3-15.5-0.5-23.2c0-1.7,0.5-2.4,1.3-2.3
		s1.1,0.7,0.9,1.9c-0.4,5.8-0.4,11.6-0.1,17.4c0.2,9.3,0.3,18.6,0.4,27.9l0.3,17.7c0.2,7.8,0.5,15.6,0.7,23.4
		c0.1,2.9,0.3,5.7,0.5,8.6s-0.1,2.6-0.8,2.7s-1.3-0.8-1.3-2.6V135H346.3z"/>
	<path class="st0" d="M191.6,199.2c-0.1-1.4-0.3-2.7-0.3-4c0-6,0-12.1,0.1-18.1s0.1-11.8,0.2-17.7c0-9.2,0-18.5,0.1-27.7
		c0-11.3,0.1-22.6,0.2-33.9c0-4.3-0.1-8.5-0.1-12.8c0-2,0.2-2.3,1.6-2.7v14.4c0,5.2-0.1,10.5-0.1,15.7s-0.2,8.7-0.2,13v14.3
		c0,11-0.1,22-0.1,32.9c0,8.1,0.1,16.2,0.2,24.3C193.3,198.9,193,199.3,191.6,199.2z"/>
	<path class="st0" d="M476,301.4c0.3-1.4,1-2.1,1.6-0.9c0.1,0.3,0.1,0.6,0.1,0.9c0.3,5.1,0.5,7.5,0.7,12.6c0.2,2.8,0.2,5.6,0.4,8.4
		c0.4,5.7,0.9,11.3,1.3,17l0.9,13.5c0.1,0.8,0.3,1.6,0.4,2.4s-0.2,1.7-1,1.7s-1.1-0.5-1.2-1.4c-0.1-3.4-0.2-6.8-0.4-10.2
		s-0.4-7-0.7-10.5l-0.3-5.6c-0.2-2.9-0.3-5.8-0.5-8.7c-0.4-5.2-0.7-10.5-1.1-15.8C476.1,302.8,476.2,303.6,476,301.4z"/>
	<path class="st0" d="M360.9,122.4l-0.6-28.7c-0.1-5.6-0.3-11.3-0.4-17l-0.3-18.1c-0.1-1.1-0.2-2.1-0.2-3.1s0.2-2,0.9-2.1
		s1.3,0.8,1.3,1.9s-0.1,1.9-0.1,2.8v17c0.1,3.8,0.1,7.5,0.2,11.3l0.6,27.2c0.1,6,0.3,12,0.5,17.9c0,2.1,0.3,4.2,0.5,6.2
		c0,0.9-0.1,1.9-0.2,2.8c-0.1,0.7-0.5,1.3-1,1c-0.4-0.3-0.7-0.7-0.9-1.2c-0.1-0.7-0.2-1.4-0.2-2.1L360.9,122.4L360.9,122.4z"/>
	<path class="st0" d="M375.7,68.8c0.1,4.7,0.2,9.7,0.4,14.6c0.3,9.2,0.6,18.4,0.8,27.6c0.2,5.4,0.3,10.8,0.5,16.2
		c0.1,2.7,0.3,5.3,0.4,7.9s-0.3,2-0.9,2s-1-0.7-1.1-1.6s-0.1-0.7-0.1-1.1c-0.1-5.2-0.1-10.4-0.2-15.5s-0.3-9.3-0.4-13.9
		s-0.3-12.2-0.5-18.3s-0.2-10.5-0.4-15.8c-0.1-3.5-0.3-7-0.5-10.5c0-1.1,0.4-2,1-2.2s1,0.7,1.2,1.5c0.1,0.4,0.1,0.9,0.1,1.3
		C375.9,63.5,375.8,66.1,375.7,68.8z"/>
	<path class="st0" d="M426.5,124.3v-1.9c0-1.7-0.1-3.4-0.2-5s-0.2-6-0.4-9s-0.5-8.3-0.8-12.4l-0.3-6.7c-0.1-1-0.3-1.9-0.4-2.8
		c-0.1-0.3,0-0.6,0.2-0.8c0.4-0.2,0.8-0.4,1.2-0.4c0.3,0.2,0.6,0.5,0.7,0.8c0.1,0.6,0.1,1.2,0,1.8c0,2-0.1,4.1,0,6.1
		c0.2,3.8,0.6,7.5,0.8,11.3s0.3,6,0.5,8.9l0.6,8c0,0.2,0,0.5,0.1,0.7C428.8,124.2,428.6,124.4,426.5,124.3z"/>
	<path class="st0" d="M179.5,92.6c0,3.1-0.1,6.2,0,9.3c0,1.1,0.2,2.1,0.3,3.2c0.1,0.8,0.2,1.5,0.2,2.3c0,9.8-0.1,19.6-0.2,29.3
		s-0.1,16.5-0.1,24.7s0,14.8,0,22.2V195c0,1.1,0.1,2.2-0.7,2.4s-1.1-0.8-1.1-2.4c0.1-10,0.1-19.9,0.2-29.9
		c0.1-14.1,0.3-28.3,0.4-42.4c0.1-8.7,0-17.4,0-26.1c0-1,0-2,0.1-3c0.1-0.4,0.3-0.8,0.5-1.2L179.5,92.6z"/>
	<path class="st0" d="M393.4,75c0,3.8-0.1,7.7,0,11.6s0.3,8,0.4,12s0.3,10,0.4,15.1c0.1,3.2,0.3,6.4,0.5,9.7l0.3,7.8
		c0,0.5,0.1,1.1,0.3,1.6c0.2,0.6,0.1,1.2-0.3,1.7c-0.4,0.3-0.8,0.4-1.3,0.3c-0.5-0.1-0.6-0.8-0.6-1.5c0-2.5,0-5.1-0.1-7.6
		c-0.1-5.4-0.3-10.9-0.5-16.3l-0.3-15.7c-0.2-8-0.5-16-0.7-23.9c-0.1-1.1-0.2-2.1-0.2-3.2s0.1-1.4,0.8-1.5s1,0.5,1.1,1.4V75H393.4z"
		/>
	<path class="st0" d="M166.2,131.4c0-7.8-0.1-15.6,0-23.4v-3.3c0-1.2,0.4-1.6,1-1.5s1.2,0.8,1,1.9c-0.6,3.2-0.2,6.5-0.3,9.7
		c-0.2,6.3-0.3,12.6-0.4,18.8c-0.1,6.2-0.1,14.4-0.2,21.6v33.3c-0.1,1.1,0,2.2,0.1,3.3c0,0.5,0.1,1.1,0.1,1.6s-0.2,1.9-0.8,2
		s-0.8-0.8-1-1.7s-0.1-0.9-0.1-1.4l0.3-27.8l0.3-27L166.2,131.4z"/>
	<path class="st0" d="M408.3,74.5c0.9,0.3,0.8,1,0.8,1.5s-0.1,2.4,0,3.5c0.1,5.3,0.3,10.7,0.5,16l0.3,8.2l0.6,10.4
		c0.2,2.9,0.2,5.9,0.4,8.8s0.3,2.9,0.5,4.3v0.4c0.2,1.1-0.1,1.7-0.8,1.8s-1.1-0.4-1.2-1.5c-0.1-0.8-0.1-1.5-0.1-2.3
		c-0.1-2-0.1-4-0.1-6c-0.3-5.5-0.6-11-0.8-16.6s-0.7-14.3-1-21.4c0-0.4-0.1-0.9-0.1-1.3c-0.3-1.3-0.1-2.6,0.4-3.8
		C408,75.9,408.2,75.2,408.3,74.5z"/>
	<path class="st0" d="M185.2,408.8c-0.8-0.4-1.3-1.1-1.6-1.9c-0.7-2.3-0.3-4.6-0.3-6.9v-14.3c0.1-4.7,0.1-9.5,0.2-14.3
		c0-0.8,0,0.1,0.1-0.7s0-1.2,0.8-1.1s1.1,0.5,1.1,1.3s-0.1,0.9-0.1,2.2c-0.1,6.2-0.2,12.4-0.2,18.6c0,3.9-0.1,7.7,0,11.6
		c0,1.4,0.1,2.8,0.2,4.2C185.4,407.9,185.3,408.4,185.2,408.8z"/>
	<path class="st0" d="M155,115.1c1,0.2,1,1.1,1,2.1c-0.7,9.5-0.4,19.2-0.5,28.8s-0.2,21.6-0.2,32.4c0,2.5,0.1,5,0.1,7.5
		c0.1,1.4,0,2.7-0.1,4.1c0,0.5-0.5,1.2-0.7,1.1s-0.7-0.5-0.9-1c-0.2-0.6-0.2-1.3-0.2-1.9c0.2-15.3,0.3-30.5,0.4-45.8
		c0.1-5.8,0-11.6,0.2-17.4C154.2,121.7,154.7,118.5,155,115.1z"/>
	<path class="st0" d="M491.3,293.9c0.5-1.7,1.4-1.8,1.7,0.4l0.3,3.6c0.2,3,0.3,6.1,0.5,9.1s0.5,7.2,0.7,10.7s0.5,4.6,0.7,6.9
		s0.3,3.4,0.5,5.1s-0.5,1.2-1.3,1.2s-0.8-0.5-0.8-1s-0.1-2.7-0.2-4l-1.8-26.6C491.5,297.6,491.4,295.9,491.3,293.9z"/>
	<path class="st0" d="M440.5,93.6l0.9-0.4c1.1-0.2,1.5,0.2,1.5,1.6s-0.1,5.2-0.1,7.8s0.3,6.6,0.5,9.9s0.3,5.8,0.5,8.6
		s0.3,3.9,0.5,5.8v1.1c0.1,0.7-0.5,1.3-1.2,1.4c0,0-0.1,0-0.1,0c-0.8,0-0.9-0.7-0.9-1.4s-0.1-3.7-0.2-5.6c-0.1-4.7-0.3-9.4-0.5-14.1
		l-0.6-11.7C440.8,95.6,440.6,94.6,440.5,93.6z"/>
	<path class="st0" d="M171.8,397.5c-1.3-0.7-1.2-0.7-1.2-1.9c0.1-3,0.1-5.9,0.2-8.9V383c0.1-3.3,0.1-4.3,0.2-7.6
		c-0.1-0.5,0-1,0.1-1.5c0.1-0.4,0.5-0.7,0.9-0.8c0.3,0,0.6,0.5,0.9,0.9v0.4c-0.1,4,0,5.7-0.2,9.7c-0.2,3.9-0.1,7.7,0.1,11.6
		C172.8,396.5,172.8,396.6,171.8,397.5z"/>
	<path class="st0" d="M143.4,181.5v6.7c0,1.3-0.1,2.3-0.7,2.5s-1-0.5-1.1-1.9s-0.1-0.9-0.1-1.4c0.2-11.4,0.3-22.8,0.5-34.2
		c0-5.6,0-11.1,0.1-16.6v-3.9c0-1.5,0.1-2.7,0.8-2.9s1.1,1.7,1.1,3.4c-0.1,3.3-0.3,6.5-0.3,9.8c-0.1,6.3-0.1,12.5-0.1,18.7
		l-0.3,19.8L143.4,181.5z"/>
	<path class="st0" d="M503.4,286.2c0.2-1.7,1.5-1.5,1.7,0.4s0.1,1.3,0.1,1.9c0.2,2.4,0.3,4.9,0.5,7.3s0.1,2,0.2,3
		c0.1,1.2-0.2,2.5-0.7,3.6c0,0.1-0.2,0.2-0.3,0.3s-0.6-0.7-0.6-1.2c-0.3-3.9-0.5-7.8-0.7-11.8C503.4,288.5,503.3,287.4,503.4,286.2z
		"/>
	<path class="st0" d="M459.7,116.8c0.2,2.9,0.5,5.8,0.8,8.7c0.1,0.6,0.1,1.3-0.4,1.6s-1,0.4-1.2,0.2c-0.4-0.4-0.6-0.9-0.6-1.5
		c-0.2-2.5-0.2-5-0.3-7.4s-0.2-2.9-0.4-4.3s-0.1-0.5-0.1-0.7c0-0.7,0.4-1.4,1.1-1.7c0.6,0,1.2,0.6,1.2,1.6s0,2.3,0,3.5L459.7,116.8z
		"/>
	<path class="st0" d="M122,179c0.2,2.9,0.5,5.8,0.8,8.6c0.1,0.7,0.1,1.3-0.4,1.6s-1,0.5-1.2,0.2c-0.4-0.3-0.6-0.9-0.6-1.4
		c-0.2-2.5-0.2-5-0.3-7.5s-0.2-2.8-0.4-4.3s-0.1-0.4-0.1-0.7s0.5-1.6,1.1-1.6s1.2,0.6,1.2,1.5S122.1,177.8,122,179L122,179z"/>
	<path class="st0" d="M131.4,163.9l0.9,24.8c0,1.8,0.1,3.5-0.4,4.5s-1,1.2-1.2,0.6c-0.4-1.4-0.7-2.8-0.7-4.2
		c-0.1-7.1-0.1-14.2-0.2-21.3c-0.1-4.1-0.3-8.1-0.4-12.2c0-0.6-0.1-1.3-0.1-2c0-2.4,0.5-4.6,1.1-4.8s1.2,1.7,1.2,4.4v10.2H131.4z"/>
	<path class="st0" d="M202.6,430.2c-0.1,0.2-0.1,0.6-0.3,0.8s-1.3,2.6-1.9,4s-1.5,3.3-2.2,4.9l-0.9,1.8c-0.1,0.3-0.3,0.5-0.5,0.7
		c-0.3,0.2-0.6,0.3-1,0.3c-0.5-0.2-0.4-0.6-0.2-1.1c1-2.2,2-4.3,2.9-6.5s1.1-3.1,1.7-4.5c0.2-0.5,0.5-0.9,0.9-1.2
		c0.5-0.3,1.1-0.1,1.4,0.4C202.5,429.9,202.6,430,202.6,430.2z"/>
	<path class="st0" d="M181.6,429.5c-0.1-0.4-0.3-0.7-0.2-1c0.3-0.8,0.6-1.5,1-2.2l3.6-7.7c0.2-0.4,0.4-0.8,0.7-1.1
		c0.3-0.5,0.8-0.4,1.2-0.1s0.2,0.6,0.3,1s0,0.2,0,0.2c-1.3,2.7-2.5,5.4-4,8S182.9,428.7,181.6,429.5z"/>
	<path class="st0" d="M175.2,408.3c0,0.5-0.1,1-0.3,1.4c-1.8,2.2-2.7,4.7-3.8,7.1c-0.3,1-0.9,1.8-1.8,2.3c-0.5-0.2-0.7-0.7-0.5-1.2
		c0-0.1,0.1-0.2,0.1-0.2c1.1-2.9,2.4-5.8,3.9-8.5C173.3,408.4,173.9,407.7,175.2,408.3z"/>
	<path class="st0" d="M265.9,29.4c0.9-0.2,1.1,0.2,1.2,0.7s0.3,2.3,0.4,3.4l0.6,6.3c0,0.4,0.2,0.8,0.1,1.2s-0.5,0.8-0.8,0.8
		s-0.7-0.4-1-0.7c-0.1-0.1-0.1-0.3-0.1-0.5c-0.2-3.3-0.4-6.5-0.5-9.8C265.8,30.3,265.9,29.9,265.9,29.4z"/>
	<path class="st0" d="M448.1,420c-0.4-0.2-0.8-0.6-1.1-0.9c-0.9-1.4-1.6-2.8-2.5-4.2l-2.4-4.2c-0.5-0.8-0.5-1.3,0-1.6
		c0.6-0.4,1.4-0.2,1.8,0.5c0,0,0,0,0,0l0.9,2l3,6c0.3,0.6,0.4,1.3,0.7,2C448.3,419.7,448.2,419.8,448.1,420z"/>
	<path class="st0" d="M224.1,53.8c0,0.6,0.1,1.2-0.7,1.2s-1-0.4-1-1l-1.5-9.5c0-0.5-0.3-1.3,0.4-1.4s0.9,0.6,1,1.1
		c0.4,1.1,0.6,2.2,0.8,3.3C223.5,49.6,223.8,51.7,224.1,53.8z"/>
	<path class="st0" d="M252.4,452c0.3,0.6,0.4,1.3,0.1,1.9c-0.6,1.8-1.1,3.6-1.5,5.5c-0.2,0.9-0.3,1.7-0.5,2.5
		c-0.1,0.5-0.3,0.9-0.6,1.3c-1.1-0.4-1.2-0.9-1-1.8c0.6-2.7,1.1-5.4,1.6-8.1C250.8,452.1,251.1,451.9,252.4,452z"/>
	<path class="st0" d="M160.2,384.3c-0.8,0-1.5-0.8-1.4-1.6c0,0,0-0.1,0-0.1c0.1-2.8,0.1-3.3,0.1-6c0-0.7,0.2-1.2,0.9-1.3
		s0.9,0.5,0.9,1.3c0,2.4,0,2.5,0.1,4.8c0,0.5,0,0.9,0.1,1.4C161.1,383.5,160.8,383.9,160.2,384.3z"/>
	<path class="st0" d="M428.6,67.1l-0.5,0.7c-1.7,1.9-3.1,4-4.3,6.2c-0.2,0.4-0.4,0.7-0.6,1c-0.3,0.5-1,0.7-1.5,0.4
		c-0.5-0.4-0.5-1-0.2-1.5l2.6-3.8c0.8-1.1,1.7-2.1,2.6-3.2c0.3-0.2,0.6-0.4,1-0.5C428,66.6,428.4,66.8,428.6,67.1z"/>
	<path class="st0" d="M158.3,101.2c-0.3,0.4-0.5,0.9-0.8,0.9c-0.5,0.1-0.9,0-1.3-0.3c-0.4-0.5-0.8-1-1.2-1.6l-2.9-4.4
		c-0.4-0.7-0.7-1.5-1.1-2.3s-0.2-0.8,0.2-1c0.4-0.1,0.8,0,1,0.4c0.9,1.4,1.7,2.7,2.7,4l2.5,3.2L158.3,101.2z"/>
	<path class="st0" d="M120,147.8c-0.1,0.5-0.1,1-0.3,1.2c-0.4,0.3-0.9,0.4-1.4,0.3c-0.6-0.2-1.2-0.5-1.7-0.9l-4.6-2.5
		c-0.8-0.4-1.4-1-2.1-1.4c-0.3-0.2-0.5-0.6-0.3-0.9c0-0.1,0.1-0.1,0.1-0.2c0.3-0.4,0.6-0.3,1-0.1l4.2,2.3l3.8,1.6L120,147.8z"/>
	<path class="st0" d="M432.4,433.3c-0.7,0.2-1.5-0.1-1.8-0.8c-0.9-1.6-1.8-3.2-2.8-4.8c-0.5-0.9-1-1.7-1.6-2.5
		c-0.4-0.7-0.4-1.4,0.1-1.7c0.6-0.3,1.4-0.1,1.7,0.5l3.9,7.8C432.1,432.3,432.3,432.8,432.4,433.3z"/>
	<path class="st0" d="M194.8,59.7c0-0.5-0.3-1.3,0.5-1.5s0.8,0.8,1,1.3c0.7,2.6,1.4,5.2,2,7.8c0.2,0.6,0.2,1.2-0.3,1.5
		c-0.3,0.2-0.7,0.3-1,0.1c-0.4-0.2-0.6-0.6-0.7-1C195.7,65.2,195.3,62.5,194.8,59.7z"/>
	<path class="st0" d="M215.2,449c-0.6-0.3-0.9-1.1-0.5-1.8c0,0,0,0,0,0c0.3-0.9,0.7-1.7,1.2-2.5c0.8-1.5,1.3-3.1,1.4-4.8
		c-0.1-0.5,0.2-1,0.7-1.2c0.4-0.3,1-0.2,1.2,0.2c0.1,0.1,0.1,0.3,0.2,0.5c0,0.3,0,0.6-0.1,0.9c-0.6,2.8-1.7,5.5-3.2,8l-0.4,0.5
		L215.2,449z"/>
	<path class="st0" d="M414,444.4c-1.1,0.2-1.5-0.6-1.8-1.3l-3.3-5.7c-0.4-0.5-0.7-1-1-1.5c-0.3-0.5-0.3-1,0.2-1.3
		c0.5-0.3,1.1-0.3,1.6,0l0.2,0.3C411.1,438.1,413.2,440.9,414,444.4z"/>
	<path class="st0" d="M377.6,460.5c-1,0.1-1.3-0.3-1.5-0.9s-0.7-3.1-1.1-4.6s-0.7-2-1.1-3c-0.2-0.4-0.1-0.9,0.1-1.3
		c0.3-0.4,0.8-0.5,1.3-0.4c0.4,0.1,0.8,0.5,0.8,0.9l1.5,7.7L377.6,460.5z"/>
	<path class="st0" d="M459.3,393.2c0.6-1.1,1.1-1.3,1.9-0.5s1.9,2.1,2.8,3.2s1.5,2.2,2.3,3.2c0.6,0.6,0.8,1.5,0.5,2.3
		c-0.8-0.3-1.6-0.9-2.1-1.6l-3.8-4.9L459.3,393.2z"/>
	<path class="st0" d="M161.3,395l1,1c0.4,0.5,0.4,0.9-0.2,1.4c-0.5,0.4-0.9,0.9-1.2,1.4c-1.1,1.7-2.2,3.3-3.2,5s-0.8,0.5-1.2-0.1
		s-0.1-1.4,0.3-2.1l3.3-5L161.3,395z"/>
	<path class="st0" d="M254.8,40.3c0,1.8,0,3-0.1,4.3c0,0.6-0.5,1.1-1.1,1.1c0,0-0.1,0-0.1,0c-0.7-0.1-0.9-0.5-0.9-1.3
		c0.2-2.5,0.2-4.9,0.3-7.4l0,0c0.1-0.6-0.4-1.4,0.6-1.6s1,0.8,1.1,1.6S254.7,39.5,254.8,40.3z"/>
	<path class="st0" d="M235.4,447.3c-0.1,0.2-0.1,0.5-0.1,0.7c-0.7,2.4-1.5,4.8-2.2,7.3c-0.3,0.9-0.6,1.2-1.2,1s-0.8-0.6-0.6-1.5
		s0.5-2,0.8-3s0.7-2.6,1.1-3.9c0.1-0.4,0.3-0.8,0.6-1.1c0.3-0.2,0.7-0.3,1.1-0.1C235.2,446.7,235.3,447.2,235.4,447.3z"/>
	<path class="st0" d="M207.9,51.6v-0.4c0-0.4,0.2-0.8,0.6-0.8c0.3,0.1,0.6,0.4,0.7,0.7c0.4,1.5,0.7,3.1,1.2,4.7s0.6,1.9,0.9,2.8
		c0.2,0.5,0.3,1,0.3,1.5c0,0.4-0.3,0.7-0.6,0.9c-0.2,0.1-0.7-0.2-1-0.4c-0.2-0.2-0.3-0.4-0.3-0.7c-0.6-2.3-1.2-4.7-1.7-7
		C207.9,52.5,207.9,52,207.9,51.6z"/>
	<path class="st0" d="M237,41.1c0.7,0,0.9,0.3,1,0.7c0.1,0.7,0.2,1.5,0.3,2.2c0,1.9,0.3,3.8,0.8,5.7c0.2,0.8,0,1.3-0.6,1.4
		c-0.6,0.2-1.3-0.1-1.5-0.7c0-0.1,0-0.1-0.1-0.2c-0.3-2.7-0.4-5.5-0.1-8.2C236.9,41.7,236.9,41.5,237,41.1z"/>
	<path class="st0" d="M474.2,120.1l6.1-2.3c1-0.5,2.1-0.6,3.2-0.5c0.2,0.6-0.1,1.2-0.7,1.4c0,0-0.1,0-0.1,0l-6.3,2.8l-0.6,0.2
		C474.5,122.2,473.9,121.7,474.2,120.1z"/>
	<path class="st0" d="M146,115.9c-0.9-0.5-4.9-5.2-6.7-7.9c0.3-0.7,0.8-0.9,1.4-0.4c0.6,0.5,1.3,1.2,1.8,1.8l3.9,4.5
		C147.1,114.7,147.1,114.9,146,115.9z"/>
	<path class="st0" d="M131.8,130.3c-1-0.3-5.9-4.2-8.1-6.5c0.1-0.7,0.6-1,1.2-0.6c0.7,0.4,1.4,0.9,2.1,1.4l4.8,3.7
		C132.6,128.9,132.6,129.2,131.8,130.3z"/>
	<path class="st0" d="M394.4,453.3c-0.6,0.1-1.3-0.3-1.4-0.9c-0.6-1.1-1.1-2.3-1.7-3.5l-1.8-3.1c-0.4-0.7-0.4-1.3,0-1.6
		c0.6-0.4,1.3-0.2,1.7,0.3c0,0,0,0,0,0.1l3,7.2C394.3,452.3,394.3,452.8,394.4,453.3z"/>
	<path class="st0" d="M389.2,48.7c-0.1,0.2-0.1,0.5-0.1,0.7c-0.8,2.4-1.5,4.8-2.3,7.1c-0.1,0.5-0.5,0.8-1,0.8c-0.1,0-0.2,0-0.3-0.1
		c-0.5-0.2-0.7-0.7-0.4-1.4c0.8-2.4,1.7-4.7,2.5-7.1c0.2-0.4,0.4-0.9,1-0.7S389,48.6,389.2,48.7z"/>
	<path class="st0" d="M341.7,36.1c-0.1,1.9-0.2,3.7-0.4,5.6c0,0.2,0,0.4-0.1,0.5c-0.2,0.5-0.5,1.1-1.2,0.9c-0.5-0.2-0.8-0.8-0.7-1.3
		c0.1-1.1,0.3-2.1,0.4-3.2l0.3-3.4c0-0.3,0-0.7,0.2-1c0.1-0.3,0.4-0.5,0.7-0.6c0.2,0,0.7,0.3,0.7,0.6
		C341.7,34.8,341.7,35.5,341.7,36.1z"/>
	<path class="st0" d="M368.2,49.3l1.2-7.5c0-0.2-0.1-0.4,0-0.5c0.1-0.3,0.3-0.6,0.5-0.8c0.3,0.2,0.8,0.4,0.8,0.7
		c0.2,0.8,0.3,1.7,0.2,2.6c-0.1,1.6-0.5,3.2-0.6,4.8s-0.2,1.1-0.9,1.3S368.8,50.1,368.2,49.3z"/>
	<path class="st0" d="M178.5,70.1c0.8-0.5,1.3-0.4,1.7,0.4l2,3.7c0.5,0.9,1,1.8,1.6,2.7s0.6,1.5,0.1,1.8s-1.4,0.1-1.8-0.8
		s-2.2-4.6-3.2-6.9C178.7,70.7,178.6,70.4,178.5,70.1z"/>
	<path class="st0" d="M296.1,30.9c-0.1,2.6-0.2,5.2-0.4,7.8c-0.1,0.7-0.6,1.2-1.2,1c-0.6-0.2-1-0.8-0.9-1.5l0.6-3.4
		c0.2-1.2,0.3-2.4,0.4-3.5s0.2-0.5,0.3-0.8L296.1,30.9z"/>
	<path class="st0" d="M279.2,36.9v-3c-0.1-0.6,0.4-1.1,1-1.2c0,0,0.1,0,0.1,0c0.5,0.2,0.8,0.7,0.8,1.3c0.1,1.8,0.1,3.7,0.1,5.5
		c0,0.1,0.1,0.3,0.1,0.4s-0.4,1.3-1,1.4c-0.7-0.1-1.2-0.7-1.1-1.4C279.1,38.9,279.2,37.9,279.2,36.9z"/>
	<path class="st0" d="M142.1,388.2c-0.5-0.9-0.8-1.6-0.2-2.3c1.5-1.9,3.4-3.6,5.5-4.9l1.1,1.6c-1.2,0.7-2.3,1.5-3.4,2.4
		C144.1,385.9,143.2,387,142.1,388.2z"/>
	<path class="st0" d="M408,57.1c-0.1,0.2-0.1,0.5-0.1,0.7c-0.8,1.8-1.5,3.7-2.3,5.5c-0.1,0.3-0.3,0.6-0.6,0.8
		c-0.3,0.4-1,0.5-1.4,0.2c-0.5-0.4-0.7-0.9-0.2-1.4s1.9-3.9,3-5.8c0.2-0.3,0.6-0.5,1-0.5C407.6,56.6,407.8,57,408,57.1z"/>
	<path class="st0" d="M310.3,36.8v2.1c0,0.4-0.1,0.9-0.2,1.3c-0.1,0.5-0.5,0.8-1,0.8c-0.1,0-0.2,0-0.3-0.1c-0.5-0.1-0.9-0.6-0.8-1.1
		c0-0.1,0-0.1,0-0.2c0.4-1.9,0.7-3.8,0.7-5.8c0.1-0.6,0-1.4,0.8-1.4s0.7,0.9,0.8,1.4S310.3,35.8,310.3,36.8z"/>
	<path class="st0" d="M485,377.1c-0.5-0.3-1-0.6-1.5-1l-4.5-4.4c-0.6-0.6-0.7-1.2-0.2-1.7c0.4-0.4,1.1-0.4,1.6,0c0,0,0,0,0,0.1
		c1.4,1.5,2.7,3,3.9,4.6C485,375.3,485.3,376.2,485,377.1z"/>
	<path class="st0" d="M166.6,80.3c0.7-0.5,1.2-0.4,1.5,0.1s1,1.5,1.4,2.3s1.3,2.6,1.9,3.9s0.4,1-0.2,1.3c-0.5,0.3-1.1,0.1-1.4-0.3
		c0,0,0,0,0-0.1l-0.6-1.4l-2.4-5.1C166.7,80.8,166.7,80.5,166.6,80.3z"/>
	<path class="st0" d="M356.6,37.4c0.3,0.4,0.4,0.9,0.5,1.4c0.1,2.2-0.2,4.4-0.9,6.5c-0.2,0.6-0.6,1-1.3,0.8s-0.7-0.8-0.6-1.4
		c0.3-1.1,0.6-2.1,0.8-3.2c0.2-0.9,0.3-1.8,0.5-2.8c0.1-0.4,0.3-0.9,0.5-1.3H356.6z"/>
	<path class="st0" d="M444,81.1c0,0.5-0.1,0.9-0.3,1.4l-2.7,3.9c-0.2,0.3-0.5,0.6-0.8,0.9c-0.4,0.4-1,0.5-1.4,0.1
		c-0.1-0.1-0.1-0.1-0.2-0.2c-0.5-0.4-0.5-1.1-0.2-1.5c0-0.1,0.1-0.1,0.2-0.2L442,82l1.6-1.1L444,81.1z"/>
	<path class="st0" d="M325.9,36v3.9c-0.1,0.7-0.5,1.1-1.1,1.1c-0.6,0-1-0.4-1-1c0,0,0-0.1,0-0.1c0.1-1.8,0.3-3.6,0.5-5.4
		s0.3-0.8,0.9-0.8s0.7,0.4,0.7,0.9V36z"/>
	<path class="st0" d="M463,98.6c0.7,0.4,0.9,1,0.4,1.6c-1,1.2-2.1,2.4-3.3,3.4c-0.4,0.4-1,0.4-1.4,0c-0.1-0.1-0.1-0.2-0.2-0.2
		c-0.3-0.6-0.1-1.4,0.5-1.7l3.4-2.7C462.5,98.8,462.8,98.7,463,98.6z"/>
	<path class="st0" d="M498.3,349.4c-0.7,0.1-1.5-0.1-2-0.6l-4.1-3.5c-0.3-0.2-0.5-0.6-0.4-1c0.2-0.5,0.7-0.7,1.2-0.5c0,0,0,0,0,0
		c0.4,0.1,0.7,0.3,1,0.5c1.3,1.3,2.5,2.6,3.6,3.9C497.9,348.5,498.1,349,498.3,349.4z"/>
	<path class="st0" d="M503.4,323.3c0.6-0.4,1.5-0.4,2.1,0.1c1.2,0.7,2.4,1.4,3.5,2.2s0.9,0.4,0.5,0.9s-0.6,0.3-0.9,0.2l-4.7-2
		C503.4,324.5,503.2,324,503.4,323.3z"/>
	<path class="st0" d="M77.9,306.7c0-0.8,0.3-1.2,1-1.2s1.9,1.1,1.9,1.8s-0.7,1-1.5,1c-0.8,0-1.4-0.6-1.4-1.4
		C77.9,306.8,77.9,306.8,77.9,306.7z"/>
	<path class="st0" d="M78.7,295.6c-0.7-0.1-1.3-0.7-1.4-1.4c0-0.7,0.7-1.3,1.4-1.2c0,0,0.1,0,0.1,0c0.8,0.1,1.3,0.8,1.2,1.6
		c0,0,0,0,0,0C79.9,295.2,79.3,295.7,78.7,295.6z"/>
	<path class="st0" d="M339.5,344.2v0.8h-0.1v-0.9L339.5,344.2z"/>
	<path class="st0" d="M339.2,341.3v0.7h-0.1v-0.7H339.2z"/>
	<path class="st1" d="M182.9,290.2c-2,2.8-10.2,13.8-36,13.8c-33,0-48.4-26.3-48.4-49.9s18.7-54.9,50-54.9c20.3,0,34.3,10,34.7,14.5
		c0.3,2.5,0.8,7.3,0.8,9.4c0,4.9-6.3,4.8-6.3,0c0-10.5-12.3-17.9-29.1-17.9S111,223.8,111,254.1s17.4,44.8,35.9,44.8
		c23.5,0,32.4-9.8,32.9-10.4S184,288.8,182.9,290.2z"/>
	<path class="st1" d="M162.8,226.1c-10.2,0-27.7,7.6-27.7,30.9s18.1,30.8,27.7,30.8c11.7,0,28.9-8.3,28.9-30.8
		C191.7,232.6,172.9,226.1,162.8,226.1z M162.8,283.2c-9.1,0-18-8.5-18-26.2c0-20.1,10.4-26.3,18-26.3S182,236.9,182,257
		C182,274.1,174,283.2,162.8,283.2z"/>
	<path class="st1" d="M203.6,234.5l34.9,50.9c0.3,0.5,0.9,0.9,1.5,1h0.8V232c0,0-0.1-3.1,1-3.5s6.4-0.2,6.4-2.9s-0.9-1.5-1.9-1.5
		s-4.8,1-8.3,1.2s-7.8-0.3-9.9,0.1c-0.8,0.1-1.4,0.8-1.4,1.6c0,1,0.8,1.9,1.9,1.9c0.3,0,0.5,0,0.7-0.1c2.3-0.5,5.3-0.8,6.3-0.1
		s0.7,4,0.7,4v32.2l-1-1.7l-26.1-37.3c-0.4-0.3-0.9-0.4-1.3-0.2c-2.1,0.4-4.3,0.6-6.5,0.6c-2.3,0-7.8-0.5-9.3-0.5s-2.2,0.5-2.2,2.1
		s1.7,2,2.7,2c1.8-0.2,3.6-0.2,5.4,0c1.3,0.4,1.1,2.5,1.1,2.5v48c-0.1,0.5-0.2,1-0.5,1.4c-0.9,1.2-2.2,2.1-3.6,2.7
		c-1.7,0.6-2.5-0.1-3.9-0.1c-0.9-0.1-1.7,0.5-1.8,1.4c0,0.1,0,0.3,0,0.4c0,1.2,1.8,1.9,4.1,1.9s4.9-1.5,7.9-1.5s6.6,1.1,8.9,1.1h2.8
		c0,0,0.8-0.3,0.8-1.9s-2.2-1.4-3.1-1.4c-1.7,0.1-3.3-0.2-4.9-0.8c-2.1-0.9-2-1.7-2-2.4c-0.1-0.5-0.1-1.1-0.1-1.6L203.6,234.5z"/>
	<path class="st1" d="M248.7,235c0,6.5,3.7,10.7,8.3,14.7c3,2.6,20.3,11,20.3,18.4c0,5.6-5.7,9.9-10.8,9.9s-10.3-1.9-12.9-4.5
		s-2.3-7.3-2.3-7.3s-0.2-2.5-1.5-2.5s-1,1.4-1,2.5s0.5,5.7,0.5,8.5s-1,8.7-1,10.3s1,1.6,1.5,1.1s1.3-3,2.5-4.7s3.7-1.5,9.4,0.8
		c2.2,0.8,4.6,1,6.9,0.7c4.5-0.6,8.6-2.6,11.9-5.7c2.7-2.7,5.5-5.9,5.5-12s-2.5-8.6-6.6-11.9s-22-12.6-22-20.4
		c0-5.7,2.2-9.3,9.4-9.3s11.5,5.3,11.5,8s0.2,5.2,1.2,5.8s1.8,0.6,2.2,0.1s0.2-21.1,0.2-21.1s-1.7-0.5-2.4,0.7s-1.3,4.8-2,5.5
		s-1.4,0.5-2.7-0.4c-2.9-1.8-6.3-2.8-9.7-2.8C261.3,219.4,248.7,223.2,248.7,235z"/>
	<path class="st1" d="M291.6,223.7V270c0,0-0.3,3.2-2.3,4.8s-5.6,2.4-5.6,3.7s0.9,0.8,2.3,0.5s8.3-2.8,11.1-3.6s11-3.7,15.7-5.2
		l11.9-4.1v-15c0,0,0-1.8-1.3-1.7s-2.1,0.9-2,2.7s-1.4,8.9-4.5,11.2s-15.5,5.1-15.5,5.1V245l10.5-3.5c0.5-0.2,1,0.1,1.1,0.5
		c0,0.1,0,0.2,0.1,0.3c0.3,1.3-0.1,4-0.1,4.8c0,0.7,0.6,1.3,1.3,1.3c0,0,0.1,0,0.1,0c0.7-0.1,1.2-0.6,1.3-1.3c0.1-4.7,0-17.8,0-17.8
		s0-1.4-1.3-1.4s-1.4,1.2-1.4,2.3s1.1,4-0.9,5.8s-10.9,3.9-10.9,3.9v-23.4l13.9-4.8c1-0.3,2.2-0.1,3.1,0.4c1,0.8,1.6,2,1.7,3.3
		c0.3,1.9,0.7,3.7,1.3,5.5c0.2,0.4,1.1,1.4,2,1.1s0.7-1.5,0.7-2.7s-1-6.7-1.2-11.3c-0.1-0.8,0.4-2.1,0-2.6s-2-0.3-4.9,0.7
		c-8.6,3-27.2,9-29.8,9.6s-2.6,1.2-2.6,2.4c-0.1,1,0.6,1.9,1.6,2c0,0,0.1,0,0.1,0c0.8,0,2.6-0.8,3.7-0.1S291.6,223.7,291.6,223.7z"
		/>
	<path class="st1" d="M398.1,260.7c-8.2,0-12.7,5-12.7,8.8c0,6.2,5.7,5.8,5.7,5.8s1-7,7.2-7c4.2,0,7.2,3.9,7.2,8.7
		c0,6.5-2.4,11.6-10.6,11.6c-12.9,0-27.9-42.7-30.8-51.8c-2.3-7.2-6.6-9.9-14.5-10.9v2l7.3-4.2c2.8-1.9,10-5.8,10-15.4
		s-12.5-15.1-20.1-12.5c-5.2,1.8-10,3.7-13.4,4.7c-1.8,0.5-6.7,1.9-7.4,2.7c-0.9,0.8-0.9,2.2-0.1,3.1c1.1,1.2,2.5-0.4,4.2-0.1
		s1.6,2.9,1.6,2.9v48.1c0,0-0.3,2.4-1.8,3.1s-4.4,1.8-4.2,3.7s1.7,2,6.5-0.4c3-1.5,4.3-2.4,6-2.9s6.8-1.7,9.7-2.8s5.9-1.6,5.4-3.7
		s-2-1.7-3.4-1s-4.7,2-6.8,1.6s-1.9-3.3-1.9-3.3v-20.3c0,0,3.7-1.5,6.7,0s5,5.8,8.7,17c7.5,22.8,20.4,44.9,38.4,44.9
		c7.8,0,16.9-6,16.9-16.9S404.3,260.7,398.1,260.7z M349.4,222.9c-2.6,1.3-5.4,2.4-8.2,3.2V203c0,0,6.4-2.8,8.1-2.9
		c5-0.5,9.5,3.8,8.2,10.3S352.8,220.9,349.4,222.9L349.4,222.9z"/>
	<path class="st1" d="M399.8,212.5c-1.5-0.1-2.9-0.2-4.4-0.2v1.4c2.4,0,15.2-11.9,15.2-24.9c0-16.9-10.6-26.3-20.7-30.3
		c-25.5-10.2-48.1,6.5-48.1,22.4c0,7.9,5.7,11.8,11.6,11.8c5.2-0.2,9.2-4.5,9-9.7c0,0-3.5,3.4-6,4s-6.8-0.6-6.8-6.5
		s6.9-19.2,22.6-19.2s27.6,14.1,27.6,26.5s-4.4,19.2-9.1,22.1c-2.1,1.2-4.4,2.1-6.8,2.7v-37.5c-0.7,3.7-3,7-6.3,8.9
		c-4.2,2.6-10,4-10.8,5s0.1,3.3,2.1,2.9s2.8-1.4,4.8-1.1s0.8,2.7,0.8,2.7v49.2c-0.1,0.9-0.5,1.6-1.2,2.2c-1.2,0.9-2.3,0.5-2.9,1
		c-0.6,0.6-0.9,1.4-0.6,2.2c0.8,2.1,5.7,1.3,7.3,0.3c1.2-0.8,2.5-1.4,3.9-1.8c1.5-0.5,7.1-1.2,11.4-2c7.4-1.2,18.8-9.3,18.8-20
		C411.3,217.1,404.5,213.4,399.8,212.5z M392.3,238.3c-2.7,1-5.6,1.8-8.4,2.4v-22.5c3-0.8,9.5-3.1,13.3-1.7s4.6,3.5,4.6,8
		S397.6,236.1,392.3,238.3z"/>
	<path class="st1" d="M512.3,219.1c-2.8-0.2-5.2,2-5.4,4.8c0,0.2,0,0.3,0,0.5c0,2,1.4,2.6,3,2.6c1.4,0,2.6-1.2,2.6-2.6v0v-1.5
		c0,0,1.7,0.5,1.7,4s-2,10.3-9.6,10.3s-8.3-17.6-9.2-21.6s-1.2-10.8-6.1-13.5c-1.4-0.8-2.8-1.5-4.3-2c2-0.8,3.9-1.8,5.6-3.1
		c2.4-1.8,8-6.1,8-13.7s-5.6-12.6-10.5-13.2c-6.6-0.7-13.3-0.7-19.9-0.1c-6.9,0.6-12.7,0.4-13.7,1.5s-0.3,3.1,1.6,3.1
		c1.8-0.1,3.5,0,5.3,0.1c1.7,0.4,1.6,3.4,1.6,3.4v46.7c0,0,0,3.8-3,4.2h-1.3c-1.4-0.4-3.2-2.2-3.9-4.7l-17.6-50.6
		c-2.7,0.8-5.4,1.3-8.2,1.3c-8.9,0.2-16.3,2.4-16.3,8.2c0,3,1.6,5.7,5.3,5.7s3.4-3.1,3.4-3.1c-0.8,0.2-1.7,0.3-2.5,0.2
		c-1.3-0.1-2.3-1.3-2.2-2.6c0,0,0-0.1,0-0.1c0-3.1,5.6-3.3,8.9-3.7l2.4-0.5l-14.9,54.4c-0.3,0.9-0.7,1.7-1.2,2.5
		c-0.9,0.8-2,1.3-3.2,1.4c-1.8,0.4-2.9,0.2-2.9,2.5s2.7,1.8,5.8,0.6c1.9-0.8,3.9-1.2,5.9-1.4c1.8-0.1,6.9-1,8.4-1.2
		c1-0.2,1.7-1.1,1.6-2.1c0-0.9-0.8-1.7-1.8-1.6c-0.1,0-0.2,0-0.2,0c-1.6,0.2-5.5,1.7-7.5,1.5s-1.2-1.2-1-2s13.9-50.1,13.9-50.1
		l9.6,27.8c1.3,2.9,2.4,5.8,3.4,8.8c1.2,3.7,2.6,6.8,2.9,8.5c0.1,0.9-0.3,1.9-1.2,2.3c-1.5,0.7-2.4,0.3-4.8,0.5c-1,0.1-1.7,1-1.6,2
		c0,0.1,0,0.2,0.1,0.3c0.1,1.3,2.2,1.8,5,0.9s13.9-1.6,15.6-1.7s9-0.5,14.4-0.4l4.8,0.3c1,0,2.5-0.6,2.5-1.9c0-1.1-1-2-2.1-1.9
		c-0.1,0-0.2,0-0.2,0h-2.7c-4.4,0-4.1-4.8-4.1-4.8v-20.9c0,0,9.1-1.3,11,4.9s4.7,23,7.1,26.6s6.1,6.4,13.3,6.4s15.7-5.5,15.7-12.8
		C519.6,222.7,516.5,219.1,512.3,219.1z M480.3,196.6c-2.9,2-7.8,1.4-7.8,1.4v-23.3c0,0,6.3-1.3,10.2,0.2s5.6,4,5.6,9.4
		S483.2,194.5,480.3,196.6z"/>
	<path class="st1" d="M442.6,212.5c0,0-3.4-4.9-12.7-4.9s-12.3,7.1-12.3,9.6s2.3,4.3,3.3,0.5s4.8-5.6,8.1-5.6c8.3,0,11.7,2.9,14.5,8
		S442.6,212.5,442.6,212.5z"/>
	<path class="st0" d="M334.3,342.7l0.8-0.3c0.1,1.3,0.3,2.6,0.5,3.8c0.5,3.5,0.7,7.1,0.7,10.6c0,2,0.1,4,0.1,6c0,0.5,0,1.1-0.1,1.6
		c-0.1,0.6,0.3,1.2,0.9,1.3c0,0,0,0,0,0l0.3-3.5v-0.7c0.1-2.1,0.4-4.2,0.4-6.2s-0.3-4.8-0.5-7.1l-0.3-3.2c0-0.1,0.1-0.2,0.2-0.4
		l0.3,0.4c0.1,1,0.1,2,0.2,3c0.1,0.9,0.2,1.8,0.4,2.7c0,0.2,0.3,0.4,0.6,0.6s0,2.9-0.1,4.4c0,0.6-0.1,1.2-0.2,1.8
		c0.1,0.3,0.1,0.6,0.1,0.9c0,1.5-0.1,3-0.2,4.6c0,0.9,0.1,1.8,0.2,2.7c0,0.2-0.1,0.3-0.2,0.5c-0.9-2.7,0-5.3-0.3-8l-0.3,3
		c-0.1,1.4-0.2,2.8-0.2,4.2c0,0.3,0.1,0.6,0.4,0.8l1.9,1.1c0.4-4.5,0.4-9,0.2-13.5h0.3v13.8c1.3,0.3,2.8,0.8,4.3,1
		c3.3,0.3,6.6,0.2,9.8-0.3c3-0.5,6-1.5,8.7-3c1.2-0.5,2.4-1.1,3.5-1.8c0.3-0.2,0.4-0.5,0.4-0.8c-0.2-3.2-0.4-6.4-0.7-9.6
		c0-1.4-0.1-2.9-0.2-4.4s-0.3-5.8-0.4-8.7c0-1.3,0-2.6-0.1-3.9c-0.1-3.1,0.1-6.1,0.4-9.2c0.3-4.2,1.6-8.2,2.3-12.3s1.1-5.2,1.6-7.8
		v-0.3c-1.1,0.1-2.1,0.7-2.7,1.6c-0.7,0.8-1.6,1.4-2.7,1.6c-2.1,0.8-4.5,0.1-5.8-1.7l-0.3-0.3l-0.2-0.2c-1.5,1.3-3.3,1.2-5,1.3
		c-3.8,0.1-7.6,0-11.4-0.1c-1.5,0-2.9-0.3-4.3-0.4c0.3-1.1,0.4-1.1,1.3-1c2.7,0.2,5.3,0.5,7.9,0.5s6.2-0.4,9.2-0.7
		c0.6-0.1,1.1-0.2,1.7-0.3c-0.4-0.7-0.6-1.4-0.8-2.1c-0.3-1.3-0.4-2.6-0.7-3.9c-0.4-2.1-0.8-4.1-1.4-6.1c-0.4-1.2-1.1-1.4-2.3-1.4
		s-5.4,0.2-8.2,0.3h-3.1l-5.1-0.3l-5.8-1c-1.1-0.3-2.2-0.7-3.2-1.1c-0.1,0.8-0.2,1.5-0.2,2.3c0,2.3-0.1,4.7,0,7
		c0.1,1.4,0.2,2.7,0.5,4.1c0.1,0.6,0.6,1.1,1.2,1c0,0,0,0,0,0l1.6,0.2v0.3c-0.5,1.1-0.5,1.2-1.8,0.8s-0.9,0.1-0.9,0.7
		s0.1,0.8,0.2,1.2c0.2,0.7-0.1,1.5-0.7,1.9c-0.3-2.3-0.7-4.4-0.8-6.6s-0.2-4.7-0.2-7.1s0.2-3.8,0.2-5.7s0-1.6,0.1-2.4
		c0-0.7,0.2-1.3,0.5-1.9c0.7-1.4,1.9-2.4,3.4-2.7c0.6-0.1,1.2-0.1,1.8,0c0.2,0,0.6-0.1,0.7-0.3c1.1-1.9,5-2.8,6.7-1.4
		s0.8,0.3,1.3-0.2c1.1-1.4,2.7-2.4,4.4-3c2.2-0.6,4.5-0.2,6.3,1.1c1,0.6,1.9,1.2,2.8,1.9l0.6-0.4c1.8-1.4,4.3-1.5,6.2-0.3
		c0.5,0.4,1.1,0.4,1.6,0.1c1.4-0.6,2.9-0.6,4.3-0.2c0.8,0.1,1.5,0.3,2.3,0.6c2.8,1.3,4.2,4.5,3.3,7.4c-0.4,0.8-0.4,1.7,0,2.5
		c0.2,0.8,0.3,1.7,0.2,2.5c-0.1,1.9-0.3,3.7-0.6,5.6c-0.2,1.5-0.7,3-0.8,4.5s-0.8,3-1,4.6c-0.2,1.6-0.5,3.2-0.9,4.7
		c-0.3,1.6-0.7,3.1-1,4.7s-1,4.5-1.2,6.8s-0.5,6.2-0.5,9.3s0.2,8.7,0.3,13c0.1,2.7,0.4,5.5,0.5,8.2s0.3,3.8,0.4,5.7
		c0,0.1-0.1,0.3,0,0.4c0.8,1.7-0.5,2.4-1.6,3.1c-3.8,2.5-8.2,4.1-12.7,4.4c-3.8,0.4-7.7,0.2-11.4-0.6c-2.3-0.5-4.5-1.5-6.4-2.8
		c-0.3-0.4-0.5-0.8-0.5-1.3c0-1.8,0.2-3.6,0.3-5.5c0.1-0.6,0.1-1.1,0-1.7c0.3-0.3-0.6-8.9-1.1-12.8c-0.1-0.7-0.1-1.4-0.1-2.1
		L334.3,342.7z M328.8,290v0.2l0.7,0.2l2.7,0.7c2.2,0.5,4.5,1.2,6.8,1.5s5.3,0,8,0.2c1.7,0.1,3.3,0,5-0.3c1.8-0.2,3,0.4,3.5,2.2
		c0.5,1.3,0.8,2.6,1.1,4c0.3,1.5,0.5,3.1,0.7,4.6c0.4,2.2,1.6,4.2,3.5,5.4c1.8,1.3,6.4,0.4,6.9-3.5c0.4-2.3,0.6-4.6,0.4-6.9
		l-0.9-4.7c-0.2-0.9-0.2-1.1,0.7-1.2c1-0.2,1.9-0.9,2.4-1.8l0.3-0.4c0.8-0.7,1.2-1.8,1-2.8c-0.3-1.3-1-2.5-2.1-3.4
		c-1.6-1.6-4.5-2.7-6.8-1.3c-0.5,0.3-1,0.3-1.5,0c-1.2-0.6-2.6-0.9-4-0.8c-1.1,0-2.2,0.6-2.8,1.5c-0.1,0.2-0.4,0.4-0.5,0.3
		s-0.4-0.3-0.6-0.5s-0.2-0.6-0.5-0.8c-1.7-1.2-3.7-2-5.8-2.3c-0.3-0.1-0.7-0.1-1,0c-2.2,0.6-4.1,1.5-5.3,3.6
		c-0.2,0.5-0.5,0.5-0.8,0.1c-0.2-0.3-0.6-0.6-0.9-0.8c-2.2-1.1-4.8-0.2-5.9,2c-0.1,0.1-0.1,0.3-0.2,0.4c0,0.2-0.2,0.3-0.4,0.4
		c-0.1-0.1-0.2-0.2-0.3-0.3c-0.1-0.7-0.6-0.7-1-0.7s-4.3,1.9-4.2,4.2c0.1,0.7,0.3,0.9,1,0.9c-0.3-1.3,0.3-2.8,1.5-3.4
		c0.5-0.2,1.1-0.2,1.7-0.2c0.1,0,0.3,0.3,0.4,0.5s-0.4,0.3-0.5,0.2s-1.8,0.7-2.4,1.6s-0.1,0.6,0.4,0.6l0.5,0.3l-0.5,0.4L328.8,290z
		 M371,291.4l-1,0.8c-0.4,0.3-0.7,0.7-1.2,0.8s-0.8,0.6-0.7,1.3c0.3,1.9,0.6,3.8,0.7,5.7c0.1,1.4-0.1,2.8-0.1,4.2s-0.2,0.9,0.4,0.9
		s1.2,0.1,1.4-0.7c0.3-0.9,0.5-1.8,0.6-2.8c0.2-2.6,0.4-5.2,0.5-7.8C371.6,293,371.8,292.1,371,291.4z"/>
	<path class="st0" d="M363.5,345.3v-4.2c0-2.2-0.1-4.4-0.1-6.6s0.3-5,0.4-7.4s0.2-2.6,0.4-3.8s1-4.3,1.5-6.4s1.2-4.8,1.9-7.1v-0.9
		c0.1-0.3,0.2-0.6,0.4-0.6s0.5,0.1,0.7,0.3c0.4,0.5,0.4,1.1,0.2,1.7c-0.5,2.5-1.1,4.9-1.7,7.4s-1,4.1-1.3,6.2
		c-0.4,2.4-0.7,4.9-0.8,7.3c-0.2,2.1-0.1,4.2-0.1,6.3v6.7c0,0.6,0.1,1.2,0.1,1.9c0,0.4-0.1,0.7-0.3,1c-0.1,0.2-0.4,0.4-0.6,0.3
		s-0.4-0.3-0.5-0.6c-0.1-0.5-0.1-1-0.1-1.5L363.5,345.3z"/>
	<path class="st0" d="M366.2,311c-0.5,1.8-0.9,3.5-1.3,5.2c-0.7,2.6-1.3,5.2-1.8,7.8c-0.3,2.6-0.5,5.1-0.5,7.7v6.2
		c0,2.4,0.2,4.7,0.3,7c0.1,0.5,0.2,1.1,0.3,1.6c-0.1,0.3-0.2,0.6-0.3,0.9c-0.3-0.2-0.7-0.3-0.8-0.5c-0.2-0.5-0.3-1-0.3-1.5
		c-0.3-2.5-0.6-5.1-0.7-7.6s0.1-2.9,0.1-4.3s0-3.7,0.1-5.5s0.4-3.7,0.6-5.5s0.1-2.2,0.3-3.3s0.6-2.6,1-4s0.7-2.8,1-4.2
		s0.9-1.1,1.4-0.9S366,310.7,366.2,311z"/>
	<path class="st0" d="M359.7,337.5c0.4-4.1-0.4-8.3,0.9-12.4h0.2c0,0.2,0.1,0.3,0.1,0.5c-0.7,2.7-0.4,5.5-0.6,8.2s0.4,6.4,0.6,9.5
		c0.1,1.2,0.2,2.4,0.2,3.6s-0.3,1-0.3,1.5c0.2,2.2,0.5,4.3,0.7,6.5s0.3,4.3,0.5,6.5c0,0.2,0.2,0.4,0.2,0.5c0,0.3-0.1,0.5-0.3,0.7
		c-0.2-0.1-0.4-0.2-0.5-0.4c-0.1-0.3-0.1-0.7-0.2-1.1c-0.4-3.7-0.7-7.5-1.1-11.2s-0.6-5.3-0.8-7.9s-0.5-4.4-0.6-6.6s0-4.4,0.1-6.6
		s1.3-7.3,1.8-11c0.2-1.3,0.2-2.5,0.2-3.8c0-0.6-0.1-1.1-0.1-1.7c0-0.2,0.1-0.4,0.2-0.5c0.2,0,0.5,0.1,0.5,0.2
		c0.1,0.6,0.2,1.1,0.3,1.7c0,1.4-0.1,2.7-0.3,4.1c-0.3,1.9-0.8,3.8-1.2,5.7s-0.5,3.3-0.6,5s-0.2,4.4-0.2,6.6
		C359.5,335.9,359.6,336.7,359.7,337.5z M359.9,338.3h-0.2c0.2,2.1,0.3,4.3,0.5,6.4h0.3L359.9,338.3z"/>
	<path class="st0" d="M360.1,314.9c-0.3,1.5-0.7,3-1,4.4s-0.7,4.3-0.9,6.4s-0.2,4.9-0.2,7.4s-0.2,2.1-0.2,3.2s0.3,3.3,0.4,4.9
		l0.6,7.5c0.2,3.1,0.5,6.3,0.8,9.4c0.1,1.6,0.3,3.2,0.5,4.9s-0.2,0.4-0.3,0.6l-0.5-0.6l-0.3-3.7l-0.6-7.1l-0.6-6.2
		c-0.2-1.7-0.2-3.5-0.4-5.2c-0.3-2.4-0.4-4.9-0.3-7.3c0.2-2.8,0.1-5.6,0.4-8.3s0.9-5.5,1.4-8.2c0.3-1.9,0.3-3.8-0.2-5.7
		c-0.1-0.3-0.2-0.6-0.2-0.9c0-0.2,0.1-0.5,0.2-0.7l0.6,0.6c0.2,1.1,0.4,2.2,0.5,3.2c0.1,0.5,0.1,0.9,0.1,1.4L360.1,314.9z"/>
	<path class="st0" d="M334.2,342.3c-0.1-0.5-0.2-0.6-0.3-1.1c-0.7-3.2-1.2-6.3-1.9-9.5s-0.9-3.8-1.3-5.7c0-0.4,0-0.9,0.2-1.3h0.3
		l0.6,2.2l1.5,6.9c0.5,2.4,1,4.9,1.4,7.3c0.1,0.4-0.1,0.7-0.2,1.1s-0.1,0.3-0.2,0.5L334.2,342.3z"/>
	<path class="st0" d="M348.6,313.2c0.3,2.3,0.5,4.6,0.7,6.9s0.3,4.2,0.5,6.3l0.3,4c-0.1,0.2-0.2,0.5-0.3,0.7
		c-0.1-0.2-0.2-0.5-0.3-0.7c-0.1-0.6-0.1-1.2-0.1-1.8c-0.4-3.4-0.7-6.7-1-10s-0.2-4.1-0.4-6.1v-0.6l0.3-0.6c0.2,0.2,0.5,0.4,0.5,0.6
		c0.1,0.4,0.1,0.8,0,1.2L348.6,313.2z"/>
	<path class="st0" d="M356.5,327.2c0.1,0.1,0.2,0.2,0.1,0.4c-0.6,2.4-0.3,4.9-0.2,7.4s0.5,6,0.8,9.1s0.2,3.4,0.4,5.2
		c0,0.2-0.1,0.3-0.2,0.5h-0.2c-0.1-0.9-0.3-1.8-0.4-2.8c-0.3-3.6-0.6-7.3-0.8-10.9s-0.1-4.8-0.1-7.2c0-0.6,0.2-1.2,0.4-1.8
		L356.5,327.2z"/>
	<path class="st0" d="M338.5,344.6c-1.7-7.8-3.4-15.4-5.1-23.1C334.1,322.1,338.8,344,338.5,344.6z"/>
	<path class="st0" d="M335.9,340.8c-1.6-5.8-2.6-11.7-3.8-17.6h0.4l1.2,5.6l2.1,9.7c0.2,0.6,0.4,1.2,0.5,1.8c0,0.2-0.1,0.5-0.2,0.7
		L335.9,340.8z"/>
	<path class="st0" d="M354.2,333.9c0.1,0.6,0.2,1.2,0.2,1.8c0.1,1.9,0.1,3.9,0.3,5.8s0.4,4.6,0.6,6.9c0.1,0.8,0.2,1.7,0.2,2.5
		c0,0.2-0.1,0.3-0.2,0.5s-0.3-0.3-0.3-0.4l-0.6-7.2c-0.2-3-0.3-6.1-0.5-9.2v-0.7L354.2,333.9z"/>
	<path class="st0" d="M363.3,364.2c-0.8-5.3-0.3-10.7-1-16h0.3c0.1,0.3,0.2,0.6,0.3,0.9c0.1,2.3,0.1,4.6,0.2,6.9s0.4,4.7,0.5,7.1
		v1.2L363.3,364.2z"/>
	<path class="st0" d="M365,362.7c-0.3-4.9-0.6-9.8-1-14.6c0-0.1,0.2-0.1,0.5-0.3c0.6,4.9,0.6,9.7,0.8,14.5
		C365.4,362.4,365.2,362.5,365,362.7z"/>
	<path class="st0" d="M344.9,328.3c-0.2-0.2-0.3-0.2-0.3-0.3l-0.8-17.2h0.1c0.2,0.2,0.3,0.4,0.4,0.7c0.1,1.1,0.2,2.1,0.2,3.2
		s0.1,3.4,0.1,5.1s0.3,5.2,0.4,7.9C344.9,327.9,344.9,328.1,344.9,328.3z"/>
	<path class="st0" d="M353.8,322.1c-0.1-0.2-0.2-0.3-0.2-0.5c-0.1-1.3-0.2-2.6-0.1-3.9c0-2.2,0.1-4.3,0.2-6.5c0-0.4-0.1-0.7-0.1-1.1
		s0.1-0.3,0.1-0.5s0.4,0.3,0.4,0.4s0.1,1.8,0.1,2.7c0,2.7-0.1,5.5-0.1,8.2c0,0.4-0.1,0.8-0.1,1.2L353.8,322.1z"/>
	<path class="st0" d="M346.2,311.8l1.5,12.3h-0.2l-0.3-0.6c-0.4-3.2-0.7-6.5-1.1-9.7l-0.3-1.6v-0.5L346.2,311.8z"/>
	<path class="st0" d="M346.7,368.2v-12.4C347.2,356.2,347.2,367.5,346.7,368.2z"/>
	<path class="st0" d="M350.5,311.7c0.3,3.5,0.7,6.9,1,10.5c-0.3-0.3-0.4-0.6-0.5-1c-0.3-3.1-0.6-6.1-0.8-9.2c0-0.1,0.1-0.2,0.1-0.3
		H350.5z"/>
	<path class="st0" d="M349.6,351.9c0.1-4.3,0.2-8.4,0.4-12.5C350.4,339.9,350.1,350.9,349.6,351.9z"/>
	<path class="st0" d="M355.6,357.9c0.2,3.3,0.2,6.5,0,9.8h-0.3v-9.8H355.6z"/>
	<path class="st0" d="M341.6,366.5v-9.9h0.2v9.9H341.6z"/>
	<path class="st0" d="M351,357.4v10.1h-0.1c-0.1-0.2-0.2-0.4-0.2-0.6c-0.1-1.4-0.1-2.8-0.1-4.2s0.1-3.1,0.1-4.7
		c0-0.2,0.1-0.5,0.2-0.7L351,357.4z"/>
	<path class="st0" d="M352.4,340.2c0.3,3.7,0.2,7.4-0.3,11v-11H352.4z"/>
	<path class="st0" d="M357.4,367.1c-0.1-0.3-0.2-0.7-0.2-1v-7c0-0.1,0.1-0.3,0.2-0.4c0.1,0.1,0.3,0.2,0.3,0.4v7.5
		c0,0.2,0,0.3-0.1,0.5H357.4z"/>
	<path class="st0" d="M354,332.9c-0.6-2.6-0.7-5.3-0.3-7.9h0.2l0.2,0.4c0,2.1,0.1,4.2,0.1,6.2v1.3H354z"/>
	<path class="st0" d="M343.3,340.9c-0.1,3.7-0.3,7.4-0.4,11.2h-0.3c0.2-3.7,0.3-7.4,0.5-11.1L343.3,340.9z"/>
	<path class="st0" d="M343.7,358.9c0.3,2.9,0,5.9,0.1,8.8h-0.3c0-0.3-0.1-0.6-0.1-0.9V359L343.7,358.9z"/>
	<path class="st0" d="M353.1,368.1c0-0.2-0.2-0.4-0.2-0.6c0.1-2.2,0.3-4.5,0.4-6.7c0-0.2,0.1-0.3,0.1-0.5h0.4
		c-0.2,2.6-0.3,5.2-0.4,7.7L353.1,368.1z"/>
	<path class="st0" d="M331.9,295v7.9C331.4,301.6,331.3,295.7,331.9,295z"/>
	<path class="st0" d="M344.9,340.9v11.3h-0.4c0.2-3.8,0.3-7.5,0.5-11.2C344.9,341,344.9,341,344.9,340.9z"/>
	<path class="st0" d="M348.9,367.4v-7.2h0.2v7.3L348.9,367.4z"/>
	<path class="st0" d="M345.5,360.1l0.3,6.9C345.2,366.3,345.1,360.5,345.5,360.1z"/>
	<path class="st0" d="M329.4,293.4c-0.7,2-0.2,4.1-0.2,6.3C328.4,298.6,328.5,294.1,329.4,293.4z"/>
	<path class="st0" d="M352.4,299c0.2,1.8,0.4,3.6,0.5,5.4C352.4,303.8,352,299.6,352.4,299z"/>
	<path class="st0" d="M347.1,344.6v7.3H347v-7.3H347.1z"/>
	<path class="st0" d="M355.9,324.9c0.3-1.5,0.7-3,1-4.7C357.3,321.2,356.5,324.7,355.9,324.9z"/>
	<path class="st0" d="M340.8,345.7c0.4,2.4,0.2,5.6-0.3,5.9L340.8,345.7z"/>
	<path class="st0" d="M342.1,303.6c-0.1-0.2-0.2-0.3-0.2-0.4l-0.3-5.4v-0.2c0-0.2,0-0.5,0.1-0.7c0.2,0.2,0.3,0.5,0.3,0.8
		c0.1,1.8,0.1,3.7,0.2,5.5C342.2,303.3,342.2,303.5,342.1,303.6z"/>
	<path class="st0" d="M350.4,295.9c0.1,1.8,0.2,3.5,0.4,5.2C350.2,300.5,349.9,296.8,350.4,295.9z"/>
	<path class="st0" d="M334.8,318.9c0.2,1,0.3,1.9,0.6,3C334.7,321.1,334.4,319.9,334.8,318.9z"/>
	<path class="st0" d="M333.4,312.2c0.3,1,0.4,1.9,0.7,2.9C333.3,314.3,333.1,313.2,333.4,312.2z"/>
	<path class="st0" d="M346.7,343.8v-3.4h0.2v3.4H346.7z"/>
	<path class="st0" d="M362.2,310.8c0.6,0.5,0.8,1.3,0.3,2c0,0.1-0.1,0.1-0.1,0.1C362.4,312.2,362.3,311.5,362.2,310.8z"/>
	<path class="st0" d="M336.4,341.4c0.1,0.4,0.2,0.8,0.3,1.2c0.1,0.1-0.1,0.3-0.1,0.4s-0.4-0.2-0.4-0.3S335.6,341.8,336.4,341.4z"/>
	<path class="st0" d="M359.9,366c-0.1-0.5-0.1-1.1-0.2-1.7h0.5c0,0.6,0,1.1,0.1,1.7H359.9z"/>
	<path class="st0" d="M361.5,363.5c0.7,0.5,0.8,1.5,0.4,2.2C361.8,365,361.7,364.2,361.5,363.5z"/>
	<path class="st0" d="M351.2,302.2c0.1,0.6,0.1,1.3,0.2,1.9h-0.3l-0.3-2L351.2,302.2z"/>
	<path class="st0" d="M351.8,326l-0.3-1.7h0.4c0.1,0.6,0.2,1.2,0.2,1.8L351.8,326z"/>
	<path class="st0" d="M359.9,338.3l0.6,6.4h-0.3c-0.2-2.1-0.3-4.3-0.5-6.4H359.9z"/>
	<path class="st0" d="M358.2,282.4c2.3,0.1,4.3,1.4,5.3,3.4c0.1,0.1,0,0.4-0.1,0.6s-0.4-0.1-0.6-0.3l-1.8-1.9c-0.8-0.6-1.7-1-2.7-1
		l-0.6-0.3L358.2,282.4z"/>
	<path class="st0" d="M362.9,308.2l-1.2-0.4c-0.2,0-0.3-0.3-0.3-0.5l0.5-0.2c1.4,0.6,2.4,0,3.5-0.8h0.6c0,0.2,0,0.6-0.1,0.7
		C365.1,307.7,364,308.2,362.9,308.2z"/>
	<path class="st0" d="M346.7,281.9c-1-0.1-2.1,0-3.1,0.3c-0.8,0.4-1.4,1.4-2.3,2c0.4-0.9,1-1.6,1.7-2.2
		C344.1,281.4,345.5,281.3,346.7,281.9z"/>
	<path class="st0" d="M369.5,286.4c0.6,0.4,0.8,1.2,0.5,1.9l-1,1.4c-0.1,0.2-0.4,0.1-0.6,0.2s-0.1-0.5,0-0.6s0.6-0.4,0.7-0.7
		c0.1-0.5,0.2-1,0.3-1.5C369.5,286.9,369.5,286.6,369.5,286.4z"/>
	<path class="st0" d="M357.2,293l0.6-0.5c0.7-0.4,1.1-1.3,1-2.1c-0.1-0.3,0.2-0.7,0.3-1.1s0.4,0.9,0,2.4
		C358.8,292.5,358,293,357.2,293z"/>
	<path class="st0" d="M339.7,285.6c-1-0.8-1.8-1.7-3.2-1.6v-0.3h0.8C338.4,283.9,339.3,284.6,339.7,285.6z"/>
	<path class="st0" d="M358.9,304.1c-0.6-0.6-0.9-1.3-0.8-2.1l0.4-0.2c0.1,0,0.3,0.1,0.3,0.2C358.9,302.7,358.9,303.4,358.9,304.1z"
		/>
	<path class="st0" d="M370.9,287.1c0.6,0.5,0.2,1.9-0.7,2.4C370.4,288.7,370.6,287.9,370.9,287.1z"/>
	<path class="st0" d="M331.7,288.8l-1.3,0.8h-0.2c0.1-0.3,0.2-0.7,0.4-0.8s0.7-0.1,1.1-0.2V288.8z"/>
	<path class="st0" d="M346.2,283.6h-1.6c-0.2,0-0.3-0.1-0.4-0.2c0.1-0.1,0.2-0.4,0.3-0.4C345.1,282.9,345.8,283.1,346.2,283.6z"/>
	<path class="st0" d="M369.7,293.5c0.9,0.6,1,7.3,0.2,8.7s-0.3-0.2-0.2-0.3C370.1,299.1,370.1,296.3,369.7,293.5z"/>
	<path class="st0" d="M335.9,305l0.3-1.1h0.2c-0.1,0.6-0.2,1.1-0.2,1.7c-0.7-0.8-0.8-2-0.2-2.9C336.2,303.5,335.5,304.2,335.9,305z"
		/>
	<path class="st0" d="M331.9,307.1c0.4-1.5,0.7-1.8,1.9-2.1c0.2-1,0.5-2,0.8-2.9c0.6-1,1.8-1.5,2.9-1.2c1.1,0.4,1.8,1.4,1.8,2.6
		c0.1,1.3-0.8,2.5-2.1,2.9c-0.6,0.2-1,0.7-1,1.3c-0.3,0.8-0.7,1.5-1.3,2.1v0.2c0.1,0.4,0.3,0.7,0.4,1.1s-0.9,0.3-1.2,0.1
		c-0.7-0.5-1.7-0.4-2.2,0.3c0,0,0,0.1-0.1,0.1l-3.5,4l2.6,0.2l1.6,0.4c1.1,0.5,1.5,1.1,1,2.3c-0.4,1-0.9,2-1.6,2.9
		c-1.3,1.8-2.7,3.6-4.2,5.4c-1,1.3-2.1,2.5-3.3,3.7c-2.3,2.2-4.8,4.3-7,6.6s-3,3.2-4.5,4.8c-2.7,3.1-3.3,6.8-3.1,10.7
		s0.2,6.2,0.4,9.3c0,1.3,0.2,2.6,0.4,3.9c0.1,0.4,0.3,0.7,0.6,1c3.4,2.4,7.2,4.1,11.2,5.2c0.8,0.1,1.5,0.2,2.3,0.1
		c0.4-0.1,0.7,0.2,0.8,0.6c0,0.2,0,0.4-0.1,0.5c-0.4,0.4-0.7,0.9-1.2,1.1c-2.3,1.1-4.5,2.1-6.8,3c-2.5,1-5.1,1.4-7.8,1.4
		c-2.7,0.2-5.4,0-8.1-0.6c-2.6-0.5-5.2-1.4-7.5-2.7c-0.4-0.2-0.9-0.7-0.8-0.9c0.1-0.5,0.5-0.9,0.9-1.1c2-0.8,4-1.3,5.9-2.2
		c1.7-0.8,3.4-1.8,5-2.8c1.3-0.8,1.2-2.3,1.3-3.5c0.1-4-0.1-8.1-0.6-12.1c-0.1-1.1-0.1-2.2-0.2-3.3c-0.1-2.1-0.9-4.1-2.3-5.7
		c-1.4-2-2.8-4-4.4-5.9s-3-3-4.5-4.5c-3.2-3.1-6.6-6-10.2-8.7c-1.5-1.1-2.6-2.6-3.2-4.4c-0.1-0.5,0.3-0.9,0.9-1.1
		c1.2-0.4,2.4-0.6,3.6-0.7c3.1-0.1,6.2,0.1,9.2,0l12.2-0.8l8.8-0.8l8.1-0.6c0.9,0,1.7-0.4,2.2-1.1l4.9-5.1c0.4-0.4,0.6-0.8,0.1-1.2
		l-0.3-0.5c0-0.4-0.2-0.9,0-1.2L331.9,307.1L331.9,307.1z M319.7,330.6v-0.2h0.7c0.8,0,0.9-0.1,1-1.2H312c0.1,2,2.1,2.9,4.4,3.4
		c1.7,0.3,3.3-0.4,4.3-1.8L319.7,330.6z M291.4,329.8h-0.1c0.4,0.3,0.7,0.8,1,0.8h3.6v0.2h-3.2c3.1,2.8,6,5.8,8.6,9.1
		c0.1,0.3,0.6,0.4,0.9,0.5h1.9l-2,0.2c0.8,1.1,2,0.3,2.9,0.8h-2c1.8,2.2,1.9,3.3,7,2.8l-3.4,0.4v0.2l2.7,0.2
		c-0.4,0.8-1.2,0.6-1.9,0.6l-2.4-0.2c1.2,1.9,1.1,4.1,1.3,6.2s0.3,4.7,0.5,7c0.2,2.5,0.2,5.1-0.1,7.6c-0.1,0.9-0.5,1.7-1.2,2.3
		c-3.3,2.1-6.8,3.6-10.5,4.7c-0.5,0-1,0.3-1.2,0.8c0,0.1,0.1,0.2,0.1,0.3l1.2-0.6v1h0.2c0-0.2,0.1-0.4,0.1-0.6s0,1.4,1.1,1.4
		c-0.1-0.3-0.2-0.5-0.2-0.8h0.1l0.9,1.5h0.2c-0.1-0.5-0.3-1-0.4-1.5h0.2c0.2,0.3,0.2,0.7,0.4,1c0.2,0.3,0.4,0.6,0.6,0.9
		c0-0.1,0.1-0.1,0.1-0.2c-0.1-0.4-0.2-0.8-0.4-1.2h0.3c0.1,0.3,0.2,0.7,0.4,1c0.1,0.3,0.4,0.5,0.6,0.8h0.2c-0.1-0.4-0.3-0.7-0.5-1.1
		h0.2c0.2,0.3,0.4,0.5,0.5,0.8c0.2,0.3,0.5,0.7,0.8,0.7l3.1,0.8c-0.3-0.5-0.6-1-1-1.5l0.3-0.2c0.2,0.4,0.4,0.8,0.7,1.1
		c0.3,0.3,0.6,0.5,0.9,0.7c0.1,0,0.1-0.1,0.2-0.2l-0.9-1.3l0.3-0.2l0.7,1.1c0.2,0.5,0.8,0.7,1.3,0.6l-0.9-1.5h0.2
		c0.1,0.1,0.3,0.2,0.3,0.4s0.6,1.3,1.5,1.3c0.7,0,1.3,0,2-0.1l-1.2-1.3l0.2-0.2c0.7,0.6,1.1,1.8,2.3,1.5l0.2-0.3l-1.4-1.1
		c0-0.1,0.1-0.1,0.1-0.2s1.3,1.8,2.5,1.5l0.2-0.3l-1.4-1.1h0.2c0.4,0.3,0.8,0.7,1.1,1.1c0.4,0.4,1,0.5,1.5,0.2
		c-0.4-0.6-1.1-0.8-1.2-1.6s0.2,0.1,0.3,0.2s0.9,1.3,1.7,1.3c0.8-0.2,1.5-0.4,2.2-0.7l-0.8-0.5l-0.5-0.5c0.1-0.1,0.1-0.1,0.1-0.2
		c0.8,0.3,1.3,1.7,2.4,0.7l-1.2-1c0.1,0,0.2-0.1,0.2-0.2v0l0.7,0.6c0.7,0.6,1,0.6,1.8,0.1l1.8-0.8c0.8-0.3,1.6-0.7,2.4-1.1l1.5-1.1
		c-0.1-0.1-0.1-0.2-0.1-0.3h-1c-0.2,0.1-0.4,0.2-0.6,0.1l-2.4-0.8l-7.2-3.1c-0.7-0.3-1.3-1-1.9-1c-0.5,0-0.9-0.3-1.1-0.7
		c-0.5-0.7-0.7-1.6-0.6-2.5c-0.2-2.5-0.5-5.1-0.6-7.7s-0.2-3.6-0.2-5.5H309l-2.1,2.1c0.6-0.8,1.2-1.6,1.9-2.4
		c0.2-0.4,0.4-0.7,0.5-1.1h-0.2l-1.7,1.7c-0.1,0-0.1,0-0.1-0.1l0,0c0.4-0.6,0.9-1.2,1.5-1.8c0.5-0.3,0.4-0.5,0.2-1.1l-1.4,1.7
		c0.2-0.8,0.7-1.5,1.5-1.9c0.4-1.6,1-3.1,1.7-4.6c0.9-1.6,2.1-3,3.4-4.3l9.1-8.9l1.9-2l-2.8,0.4l-0.4,0.5c-0.1,0.5-0.3,0.9-0.6,1.3
		c-1.4,1.7-3.6,2.5-5.7,1.9l-1.5-0.4c0,0.5,0,1.1,0.1,1.6c0,0.5,0,0.9-0.1,1.4c-0.2,1.5-1.5,2.7-3,2.8c-1,0.1-2-0.3-2.7-1l-3.3,2.3
		c-0.5,0.2-0.9,0.3-1.4,0.3c0.1-0.5,0.1-1.1,0.4-1.4c0.9-1.3,1.8-2.5,2.8-3.7c-1-1.9-0.3-3.9,0.1-5.9h-15c-0.5-0.1-1.1-0.2-1.6-0.4
		v-0.3c0.3-0.1,0.6-0.4,0.9-0.4c1.8-0.3,3.5-0.4,5.3-0.5h9.9c0.5,0,1.2,0.1,1.5-0.2c0.8-0.6,1.8-0.9,2.8-0.7c0.3,0,0.5-0.2,0.7-0.4
		c0.2-0.9,0.9-1.2,1.6-1.7c1.2-0.9,2.8-1,4.2-0.5c0.6,0.2,0.8,0.1,1.1-0.3l3.5-4l2.1-2.2h-3.5l-6.6,0.7l-8.4,0.8
		c-5,0.5-10,0.8-15,0.7l-7.4,0.3c-1.6,0.2-1.7,0.4-1.1,2h0.3v0.3c1,0.1,1.9,0.2,2.9,0.3l-2.2,0.2c0.8,0.7,1.7,0.4,2.8,0.6l-2.2,0.3
		l4.2,3.3h0.3l2.4-0.2v0.3l-2.3,0.2L291.4,329.8z M330.2,318.5v-0.3h2c0.3,0,0.6-0.3,0.8-0.4c-0.1-0.3-0.3-0.5-0.5-0.8
		c-0.2-0.2-0.5-0.3-0.8-0.3l-4-0.2c-0.3,0-0.6,0.1-0.8,0.3l-3.9,4c-1.1,1.2-2,2.4-2.9,3.5l2.3,3.4c0.9-0.1,1.8-0.1,2.7,0
		c0.7,0.1,1.5-0.2,1.8-0.9l2.3-2.7c0.6-0.9,1.3-1.8,2-2.6l-0.2-0.2l-2.1,0.5v-0.3l1.6-0.3c0.6-0.1,1.2-0.2,1.3-1h-2.5V320
		c1-0.3,2.2,0.5,3.1-0.4v-0.2h-2.6v-0.3h1.6c0.5,0,1.1,0.2,1.5-0.7L330.2,318.5z M309.9,337.3c1.5,0.7,1.8,0.6,2.5-0.1l-1.2-0.4
		v-0.2l1,0.3c0.4,0.2,0.8,0.4,0.9-0.3s0.3-0.3,0.4-0.4s0.4-1.8-0.1-2s-1.3-0.5-1.9,0s-0.4,0-0.8-0.1c1.2-0.7,2-0.4,3.2,0
		s-0.2-1.9-0.6-2.1s-1.4-1.6-1.9-2.6s-0.4-0.5-0.6-0.5H309c-0.6-0.1-0.9,0.1-1.1,0.7c-0.3,0.9-0.5,1.8-0.7,2.7
		c-0.2,1.9,0.7,3.4,2.1,4.8c0.3-1.3,1.4-2.2,2.7-2.3c0.3,0,0.7,0.1,1,0.3c0,0.1,0,0.2-0.1,0.3l-1.4,0.3l1,0.6
		c-0.5,0-1.1-0.3-1.5-0.1S310.3,336.9,309.9,337.3L309.9,337.3z M335.5,306.7l1.7-0.8c1.1-0.6,1.7-1.8,1.5-3
		c-0.2-0.7-0.7-1.3-1.4-1.5c-0.7-0.1-1.5,0.1-2,0.6c-0.6,0.7-0.8,1.6-0.7,2.5c0,0.4-0.1,0.8-0.2,1.2c-0.7-0.2-1.5,0.1-1.8,0.8
		c-0.3,0.6,0,1.4,0.6,1.7l0.3-1.5h0.3c-0.1,0.4-0.2,0.8-0.3,1.2c0,0.4,0.3,0.7,0.4,1.1h0.3c0.1-0.4,0.2-0.8,0.4-1.1h0.1l-0.3,1.4
		C335.4,308.8,335.9,307.7,335.5,306.7z M321.3,327.7c-0.2-0.9-0.7-1.8-1.5-2.4h-0.4c-0.3,0.3-0.8,0.7-0.8,1s-0.5,0.8-0.9,0.7
		l-1.7-0.7c-0.2-0.2-0.1-0.8-0.2-1.1h1l0.4-0.4l0.4-0.5c-2-1-4.5-0.2-5.5,1.8c-0.2,0.4-0.3,0.9-0.4,1.4h9.6V327.7z M326.1,315.8
		c0.8,0.1,1.6-0.3,2.1-1l3-3.3l1.1-1.1c-0.3,0-0.6,0.3-0.7,0.3s-0.6,0.3-0.8,0.6s-0.5,0.4-0.7,0.6l-0.4,0.2L326.1,315.8z
		 M317.1,326.2c1-1,2-1.9,2.9-2.9s2.4-3,3.6-4.5c0.6-0.7,1.3-1.3,2-1.8C324.9,316.9,318.8,323.5,317.1,326.2L317.1,326.2z
		 M308.2,336.8l-0.9-1.1c-1.1,1-2,2.1-2.8,3.3l0.3,0.3L308.2,336.8z M331.4,307.5c0,0.1-0.1,0.2-0.2,0.2h0c0.7,1.4,2,2.5,3.5,3h0.2
		L331.4,307.5z M309,327.3l2.2-0.2C310.5,326.7,309.6,326.7,309,327.3z"/>
	<path class="st1" d="M364.7,181.9c0.5,1.5,0,3.7-0.3,5.2c-0.5,1.5-1.3,2.8-2.4,3.9c-0.2,0.2,0.3,0.2,0.4,0.1c1-1,1.8-2.3,2.3-3.6
		c0.6-1.8,0.8-3.8,0.4-5.7C365,181.6,364.6,181.7,364.7,181.9L364.7,181.9z"/>
	<path class="st0" d="M262.1,316.4c1.2,0.2,2.5,0.3,3.7,0.1c1.3-0.1,2.6-0.4,3.9-0.7c4.2-1.6,5.4-3.1,5.4-6.9c0-2.3-1.4-3.3-3.6-2.3
		c-0.6,0.5-1.4,0.6-2.2,0.4c-0.1-1.2,0-1.5,1-1.8c1.2-0.5,2.6-0.6,3.9-0.3c0.6,0.1,1.2,0.5,1.6,1c0.9,1.3,1.3,3,0.9,4.6
		c-0.2,2.4-1.6,4.5-3.6,5.7c-2.2,1.2-4.7,1.9-7.2,2.1l-3.2,0.4c0.2,0.4,0.3,0.9,0.4,1.3c0.2,1,0.4,1.9,0.5,2.9
		c0.1,0.9-0.1,1.1-0.7,1.2s-0.9-0.2-1.1-1l-0.9-3.7c0-0.2-0.1-0.4-0.2-0.6c-1.2-0.1-2.3,0.2-3.3,0.9c-0.9,0.7-1.5,1.8-1.5,2.9
		c-0.1,0.7-0.2,1.5-0.4,2.2c0,0.3-0.1,0.5-0.3,0.7c-0.2,0.2-0.6,0.4-0.9,0.3c-0.4,0-0.5-0.4-0.4-0.9l0.9-5.8
		c0.2-0.9,0.3-1.7,0.5-2.6s1-4.1,1.6-6.1c0.4-0.9,1-1.5,1.9-1.9c0.3-0.3,0.7-0.3,1,0c0.1,0.1,0.2,0.3,0.2,0.4c0.3,1.1,0.7,2.2,1,3.3
		S261.7,315,262.1,316.4z M258.7,311h-0.3c-0.6,2.2-1.1,4.5-1.6,6.7l3.4-1C259.7,314.7,259.2,312.9,258.7,311z"/>
	<path class="st0" d="M168,353.2c-1.8-0.9-3-2.6-3.2-4.6c0-0.3-0.1-0.7-0.2-1h-2v7.2l-0.5,0.3c-1,0.5-1.3-1.2-1.2-2.5
		c0.1-1.8,0-3.5-0.1-5.3c0-1.8,0-3.6-0.2-5.4c-0.1-0.8,0.1-1.9,0-2.7c-0.1-0.5,0.1-1,0.6-1.2c1.8-0.6,3.6-0.8,5.5-0.8
		c1.1,0,2.1,0.7,2.4,1.8c0.9,2.6,0.7,4.5-0.9,6.4c-0.6,0.6-1.3,1.1-2,1.5c0.2,3.4,3.1,4.8,5.5,5.2C171.8,353.2,170,354.4,168,353.2z
		 M162.6,345.9c1.6,0,3.2-0.6,4.3-1.7c0.9-0.8,1.3-2,1-3.2c0-0.7-0.3-1.3-0.9-1.7c-0.4-0.3-0.9-0.4-1.4-0.2c-1.2-0.1-2.4,0.3-3.4,1
		C162.3,342.1,162.5,343.7,162.6,345.9L162.6,345.9z"/>
	<path class="st0" d="M177.7,343.4c0.4,0.9,0.8,1.7,1.4,2.4c0.4,0.6,0.7,1.5,1.3,1.9l1.9,0.7c0.5,0.3,1.2,0.3,1.7,0
		c0.3-0.2,0.7-0.3,1.1-0.3c0.3,0.1,0.5,0.4,0.7,0.6s0,0.8-0.4,0.9c-1.1,0.8-2.6,1-3.9,0.5c-2.2-0.7-3.5-2.3-4.6-4.5l-0.4-0.6
		l-0.5-0.8c-1.1-0.1-3-0.2-2.9,2.2v3c0.1,0.4,0.1,0.7,0.1,1.1c-0.4,0.4-0.8,0.8-1.2,0.3s-0.4-0.9-0.4-1.6s0-4.6,0.1-6.1
		s-0.3-5.6,0.1-6s3-2.2,5-1.8c1.8,0.5,3,2.2,3,4c0.2,1.4-0.3,2.8-1.5,3.6L177.7,343.4z M173.2,342.9h2.1c1.1-0.1,1.4-0.6,2.3-1.3
		c0.4-0.4,0.6-0.9,0.7-1.4c0-2.5-1.9-4-3.9-2.9l-1.4,0.8C173.1,339.9,173.1,341.1,173.2,342.9z"/>
	<path class="st0" d="M138.1,353.7v-16.3c1.5-0.4,2.9-1.1,4.6-0.5c0.9,0.3,1.7,0.9,2.4,1.6c0.2,0.2,0.3,0.5,0.3,0.8
		c0,1.9,0,3.9-1.8,5.3c0.3,0.2,0.5,0.5,0.8,0.6s2,1.8,2.6,2.9s0.5,2.6,0.2,3.9c-0.3,0.9-0.9,1.6-1.7,2
		C143.2,355.5,140.2,355.4,138.1,353.7z M140.3,352.8c2.3,0.9,4.8,0,5.2-1.9s-1.4-4.6-4.2-5.2c-0.6-0.1-1.2,0.3-1.3,0.9
		c0,0,0,0.1,0,0.1c-0.1,0.5-0.1,1.1-0.1,1.6C140,349.7,140.2,351.2,140.3,352.8L140.3,352.8z M140,344.1l1.7-0.5
		c1.5-0.6,2.3-2.3,1.8-3.8c-0.6-1.2-1.9-1.5-3.5-0.7V344.1z"/>
	<path class="st0" d="M157.3,347.8l1.7-0.3c0.2,0.5,0.4,0.6,0,1s-1,0.3-1.6,0.6s0.4,3.8,0.6,5.3s0.1,0.9-0.4,1.2
		c-0.3,0.3-0.8,0.4-1.1,0.1c-0.2-0.2-0.3-0.4-0.3-0.7c-0.2-1.1-0.3-2.1-0.3-3.2c0-0.8,0-1.6-0.1-2.4l-1.5,0.2l-2.9,0.4
		c-0.8,0-1.1-0.1-1.3,2.2c0,0.5-0.1,1-0.2,1.5c-0.1,0.7-0.5,0.9-1,0.8c-0.4-0.1-0.7-0.5-0.7-0.9c0-0.1,0-0.1,0.1-0.2
		c0.5-3,1.1-6,2-9c0.6-1.6,1-3.2,1.5-4.7s0.3-1.1,1-1.2s1.3-0.2,1.7,0.5c0.4,0.6,0.7,1.2,0.9,1.9c0.6,2.1,1.1,4.1,1.6,6.2
		L157.3,347.8z M153.3,340.5c-1.1,2.9-2.4,5.1-2.5,8.2l4.8-0.8C154.7,345.2,154.4,343,153.3,340.5z"/>
	<path class="st0" d="M193.6,347.1c-0.6,0.5-1.4,0.7-2.2,0.5c-1.8-0.6-2.4-2.1-2.8-3.6c-0.7-2.6-0.9-5.4-0.4-8.1
		c0.2-1.1,0.9-2,1.9-2.6c0.5-0.3,1-0.6,1.6-0.8c0.8-0.4,1.8-0.2,2.4,0.5c0.9,1.4,1.6,3,2.1,4.6C196.9,342.3,195.8,345.4,193.6,347.1
		z M192.5,345.9c2.4-0.7,2.3-4,2.3-6.3c-0.1-1.2-0.4-2.4-0.7-3.6c-0.2-0.6-0.5-1.1-0.9-1.5c-0.6-0.7-1.2-0.6-1.9-0.1
		c-0.9,0.6-1.4,1.6-1.5,2.7c-0.3,2.4,0,4.8,0.9,7.1C191,344.9,191.4,346.3,192.5,345.9z"/>
	<path class="st0" d="M213.7,335.9c0.7-0.3,1.3-0.7,1.9-1.2c0.4-0.4,1-0.4,1.5-0.2c0.5,0.4,0.4,0.9,0.3,1.4
		c-2.2,1.1-4.4,2.1-6.5,3.3c-0.6,0.2-1,0.3-1.5-0.1s-0.6-1,0.1-1.4c0.5-0.2,1-0.4,1.5-0.6c0.5-0.2,0.9-0.6,0.9-1.2
		c-0.2-3.1-0.4-6.1-0.6-9.3c-1.1,0.2-2.1,0.7-2.9,1.4c-0.2,0.1-0.4,0.3-0.6,0.3c-0.6,0.2-1.2,0-1.5-0.6c-0.1-0.5,0.2-1,0.7-1.1
		c0,0,0,0,0,0l2.7-1.3l4.9-2.5c0.6-0.4,1.3-0.5,2-0.2c0.2,1.3,0.2,1.4-0.9,1.8l-2.6,1l0.3,5.2C213.5,332.3,213.6,334,213.7,335.9z"
		/>
	<path class="st0" d="M234.5,325.8c-1.1,0.2-2.2,0.5-3.2,0.8c-0.4,1.1-0.6,2.3-0.5,3.5c0,0.3,0,0.6-0.1,0.9c-0.1,0.5-0.5,1-1.1,0.9
		c0,0,0,0,0,0c-0.6-0.1-0.7-0.6-0.6-1.1s0.3-1.9,0.5-2.7s0.3-1.5-0.4-2.1s-0.1-0.6,0.1-1c0.4-0.4,0.7-0.9,0.8-1.4
		c0.5-2.1,0.8-4.1,1.2-6.2c0-0.3,0.2-0.6,0.1-0.9s0.3-1.3,1.2-1.5s0.5,0.4,0.6,0.6s0.8,2,1.1,3s0.9,3.3,1.4,4.9s1,2.7,1.5,4.1
		c0.1,0.3,0.2,0.7,0.1,1c0,0.5-0.3,0.8-0.8,0.9c-0.5,0-0.9-0.1-1.1-0.6S234.8,327,234.5,325.8z M231.2,324.7c1.1-0.1,2,0,2.7-0.6
		s-0.9-3.2-1.4-4.8C231.6,321,231.6,322.8,231.2,324.7L231.2,324.7z"/>
	<path class="st0" d="M241.4,326.7l2.4-0.9l1.5-0.4c1.8-0.2,3.5-0.8,5-1.8c0.5-0.4,0.9-0.1,1.3,0.3c0.2,0.4,0.2,0.8-0.2,1.1
		c-0.8,0.7-1.8,1.2-2.8,1.4l-5.4,1.5c-0.4,0.2-0.8,0.4-1.2,0.7c-0.9,0.8-2.1,0.4-2.3-1.2s-0.3-4.3-0.6-6.5s-0.6-4.2-0.9-6.4
		c-0.1-0.7,0.1-1.2,0.6-1.3s1.1,0,1.3,0.8l0.6,4.2C240.9,320.9,241.1,323.7,241.4,326.7z"/>
	<path class="st0" d="M223.7,321.8c0.1,1.8,0.2,3.4,0.3,5s0.2,3.7,0.2,5.5c0.1,0.5,0,1.1-0.3,1.5c-0.3,0.3-0.7,0.5-1.1,0.4
		c-0.5,0-0.7-0.4-0.6-0.9c0-2.5,0.1-5,0-7.5c0.1-1.3,0.1-2.6,0-3.9c-0.7,0.1-1.8,0.7-2.4,0.7h-1.4c-0.3,0-0.6-0.2-0.6-0.6
		c0-0.1,0-0.2,0-0.2c0-0.4,0.3-0.7,0.6-0.8l1.2-0.2c2.7-0.4,5.4-1.2,7.9-2.4c1.1-0.5,1.8-0.1,1.7,1c0.1,0.4-0.2,0.8-0.7,0.9
		c-0.1,0-0.1,0-0.2,0C226.7,320.5,225.1,321,223.7,321.8z"/>
	<path class="st0" d="M183.2,345.6v-7.7c0-0.4-0.1-0.9-0.2-1.3c0-0.4-0.1-0.8-0.1-1.2s0.3-1.2,0.9-1.2s0.9,0.3,1,1.1
		s0.2,2.8,0.2,4.2s0.1,3.5,0.2,5.2s-0.3,1.1-0.9,1.1L183.2,345.6z"/>
	<path class="st0" d="M246.8,319.3c0.2-2.3,0-4.6-0.4-6.8c-0.2-0.6,0.1-1.2,0.7-1.4c0,0,0.1,0,0.1,0c0.5-0.1,1.1,0.2,1.3,0.7
		c0.1,0.4,0.2,0.7,0.2,1.1c0.1,1.2,0.2,2.5,0.4,3.7v0.7c-0.2,1.3-0.2,2.6,0.1,3.8c0.2,0.6-0.1,1.2-0.6,1.4c-0.2,0.1-0.3,0.1-0.5,0.1
		c-0.7,0.1-1.2-0.4-1.3-1.1c0,0,0-0.1,0-0.1C246.7,320.7,246.7,320,246.8,319.3z"/>
	<path class="st0" d="M418.4,306.1l-0.9-1.1l0.8-0.7c0.8-0.6,0.8-1.2,0.1-1.9c-0.9-0.7-2.1-1.1-3.2-0.9c-2.1,0.1-4.1,0.9-5.6,2.4
		c-0.8,0.7-1.2,1.7-1.3,2.8c0,0.9,0.7,1.6,1.6,1.6c0,0,0.1,0,0.1,0l1.8-0.2l3.4-0.5c1.8-0.2,3.6,0.4,4.9,1.6c1.2,1.1,1.6,2.9,1,4.4
		c-0.5,1.1-1,2.3-1.7,3.3c-0.1,0.3-0.3,0.5-0.6,0.6c-1.7,1.2-3.7,1.8-5.8,1.7c-1.9-0.2-3.6-0.9-5.2-1.9c-1.2-0.8-1.5-2.5-0.6-3.6
		c0.1-0.1,0.1-0.2,0.2-0.3c0.2-0.3,0.6-0.4,0.8-0.2c0.2,0.1,0.3,0.4,0.3,0.6c0.1,0.2,0,0.5,0,0.8s-0.1,1.4,0.9,1.9
		c2.6,1.5,5.7,1.4,8.2-0.2c0.4-0.3,0.8-0.8,1-1.3c0.6-0.8,1-1.9,1-2.9c0-0.7-0.3-1.4-0.9-1.8c-1.2-0.8-2.6-1.1-4-0.8l-4.3,0.5
		c-1.4,0.3-2.8-0.3-3.4-1.6c-0.7-1.5-0.5-3.2,0.4-4.5c1.6-2.2,3.9-3.2,6.4-4s4.1,0.2,5.9,1.5c1.1,0.9,1.2,2.4,0.4,3.5
		c-0.2,0.2-0.4,0.4-0.7,0.6L418.4,306.1z"/>
	<path class="st0" d="M446.3,300.4l-0.6-8.6c0-1-0.2-2.1-0.3-3.1c0-0.2,0-0.4,0.1-0.6c0.1-0.5,0.3-1,0.9-1c0.5,0,1,0.5,1,1
		c0.2,2.1,0.3,4.1,0.5,6.2s0,5,0.6,7.4c0.1,0.7-0.1,1.5-0.7,2c-0.3,0.4-0.9,0.5-1.3,0.2c-0.1-0.1-0.2-0.2-0.2-0.3
		c-1.2-1.2-2.3-2.6-3.4-3.8l-4.3-4.5c0.1,1.5,0.2,2.7,0.2,3.9l0.3,7.4v0.6c-0.1,0.5-0.5,0.9-1,0.9c-0.6,0-0.9-0.4-0.9-1
		s-0.2-2.6-0.2-3.9c0.1-3.3-0.2-6.5-0.8-9.7c-0.2-0.7,0.2-1.5,0.9-1.7c0.4-0.3,1.1-0.3,1.4,0.2c0,0,0.1,0.1,0.1,0.1l3.4,3.9l4,4.4
		H446.3z"/>
	<path class="st0" d="M424.3,314.7c-0.4-0.4-0.6-1-0.4-1.6c0.4-1.5,0.7-3,0.9-4.5c0.6-3.3,0.6-6.8,2-10c0.2-0.4,0.1-0.9,0.3-1.3
		c0.2-0.5,0.6-1,1-1.4c0.7-0.6,1.3-0.6,1.8,0.1c0.8,0.7,1.3,1.5,1.6,2.5c0.3,1.5,0.7,3,1.2,4.5c0.1,0.4,0.3,0.7,0.6,1
		c0.6,0.4,0.6,0.9,0.1,1.3c-0.3,0.3-0.4,0.8-0.2,1.2c0.4,1,0.7,1.9,1.1,2.8c0.2,0.4,0.3,0.8,0.1,1.2c-0.5,0.7-1.2,0.7-1.5,0
		c-0.4-0.8-0.8-1.6-1-2.4c-0.2-0.4-0.3-0.9-0.4-1.3c-1.4-0.2-2.3,0.7-3.3,1.2c-1.4,0.6-2.3,2-2.2,3.5c0,0.6-0.1,1.3-0.2,1.9
		C425.6,314.5,425.6,314.5,424.3,314.7z M426.9,306.7l3.5-1.4c0.6-0.2,0.7-0.6,0.6-1.2s-0.7-3.1-1.1-4.7c-0.1-0.6-0.6-1.2-1.2-1.4
		c-0.5,1.8-0.8,3.5-1.4,5.1C426.9,304.3,426.8,305.5,426.9,306.7z"/>
	<path class="st0" d="M489.5,270.2c1,0.3,1.2,0.8,0.8,1.8c-0.1,0.4-0.2,0.7-0.3,1.1c0.2,1.1,0,2.2-0.5,3.1c-0.7,2.1-3,3.2-5.1,2.4
		c-0.4-0.1-0.7-0.3-1-0.5c-2.8-1.6-3.2-4.2-3.2-7.1c0-1.3,0.2-2.7,0.5-4c0.2-1,0.8-1.9,1.1-2.9c0.3-0.8,1.1-1.4,2-1.3
		c0.8-0.1,1.6-0.1,2.4,0c1.8,0.2,2.5,0.8,2.9,2.5c0.1,0.8,0.2,1.6,0.2,2.4c-0.1,0.8-0.5,1.3-1.1,1.2s-1-0.5-0.9-1.2
		c0-0.6,0-1.2-0.1-1.8c-0.2-0.8-0.8-1.4-1.5-1.6c-1.3-0.4-2.1-0.2-2.6,1.2c-1.2,2.7-1.4,5.7-0.6,8.5c0.4,1.2,1.3,2.2,2.5,2.8
		c0.7,0.3,1.4,0.2,2-0.2c1-0.9,1.4-2.1,1.3-3.4c-0.1-0.5-0.4-0.6-0.9-0.5s-1.4,0.9-2.1,0.9s-1.4-0.2-1.4-0.9s0.5-1.1,1.1-1.2
		c0.5-0.2,1-0.4,1.5-0.4C488,270.7,489.1,270.1,489.5,270.2z"/>
	<path class="st0" d="M500.1,270.8c-1.8,2.1-5.8,1.6-6.8-1c-1.1-2.4-1.6-5-1.6-7.6c-0.1-1.7,0.5-3.3,1.5-4.6c1.8-2.1,4.1-2.5,6.2-1
		c0.5,0.4,0.9,1,1.2,1.6C502,261.1,502.5,267.2,500.1,270.8z M499,258.7c-0.5-1.2-1.8-1.7-3-1.3c-0.2,0.1-0.4,0.2-0.6,0.4
		c-1.1,0.9-1.7,2.3-1.8,3.7c0,2.2,0.4,4.5,1,6.6c0.1,0.4,0.3,0.8,0.5,1.1c0.9,1.1,2.8,1.3,3.6,0.2C500.7,266.1,500,260.7,499,258.7z
		"/>
	<path class="st0" d="M476.2,280.3l-4.1,1.8c-0.1,1.4-0.3,2.7-0.4,4.1s-0.2,1-0.9,1.1s-0.9-0.5-0.9-1c0-0.6,0-1.3,0.1-1.9
		c0.1-0.9,0.6-1.7,0.1-2.7s0.3-1,0.4-1.5l1.5-9.8c0.1-0.5,0.1-1,0.7-1.2c0.6-0.2,1.2,0,1.6,0.4c0.4,0.5,0.8,1.1,1.2,1.7
		c0.6,1.4,1,2.8,1.5,4.2s0.7,1.6,1,2.3s0.5,0.8,0.4,1.1s0.2,2.2,0.5,3.3s0.2,1.4-0.5,1.6s-1.2-0.3-1.4-1S476.5,281.2,476.2,280.3z
		 M475.8,278.6c-0.6-2.1-0.9-4.2-2.1-6.2c-0.9,2.4-1.3,4.9-1.1,7.5L475.8,278.6z"/>
	<path class="st0" d="M454.5,284.5l-4,1.4c-0.3,0.1-0.5,0.3-0.7,0.2s-1-0.2-1.2-0.5s0-1,0.5-1.3s0.5-0.3,0.8-0.3
		c2-0.5,4-1.3,5.8-2.4l4.9-2.3c0.5-0.2,0.9-0.5,1.3,0.1c0.4,0.5,0.3,1.2-0.2,1.6l-2.1,1.1l-3.2,1.4l0.6,5.7c0.1,2.6,0.2,5.2,0.4,7.8
		v0.3c-0.1,0.7-0.4,1.1-1,1.1s-0.9-0.5-1-1.1l-0.3-6.6C454.9,288.7,454.7,286.7,454.5,284.5z"/>
	<path class="st0" d="M463.7,278.5c0-0.7,0.1-1.3,0.3-2c0.1-0.3,0.6-0.7,0.9-0.6s0.6,0.4,0.9,0.6c0.1,0.2,0.2,0.5,0.2,0.7
		c-0.4,1.5,0,2.8,0.1,4.2s0.3,3.6,0.6,5.4c0.2,0.9,0.4,1.7,0.7,2.6c0.2,0.9,0.1,1.2-0.5,1.4c-0.6,0.2-1.2-0.1-1.4-0.6
		c0-0.1-0.1-0.2-0.1-0.3c-0.3-1.2-0.6-2.4-0.8-3.6s-0.5-5.2-0.8-7.8L463.7,278.5z"/>
	<path class="st0" d="M440.8,138.7l10.9-3c2.1-0.6,4.2-1.1,6.4-1.4c3-0.3,6.1-0.5,9.1-0.4c3.1,0,6.2,0.2,9.3,0.7
		c2.8,0.5,5.4,1.4,7.9,2.8l1.8,0.7l1,0.5c-0.7,1.2-1.3,1.3-2.4,0.8s-4.2-1.6-6.3-2.4c-0.9-0.4-1.8-0.6-2.7-0.8
		c-1.4-0.3-2.8-0.4-4.2-0.5c-3.5-0.2-6.9-0.4-10.3-0.3c-2.2,0-4.4,0.3-6.5,0.9l-8.8,2.3l-4.7,1.8c0.2,0.7,0.5,1.3,0.7,2
		c0.3,0.8,0.4,1.7,0.5,2.6c0,3.1-1.1,6.1-2.9,8.6c-2,2.4-4.3,4.3-7.6,4.2c-1.5-0.1-2.9-0.7-3.9-1.7c-1.1-1.1-1.5-2.8-0.9-4.3
		c0.6-1.6,1.3-3.1,2.3-4.5c0.8-1.2,2.1-2,3-3.1c1.7-1.8,3.7-3.3,6-4.3c0.7-0.3,0.9-0.6,0.4-1.3c-1.7-2.1-3.9-3.9-6.3-5.2
		c-3.8-1.9-7.8-2-11.9-1.7c-2.3,0.2-4.6,0.6-6.8,1.2l-9.3,3c-2.9,1.1-5.8,2.4-8.6,3.8l-9.6,5.1c-0.5,0.3-0.8,0.8-1.3,1.1
		s-0.6,0.1-1,0.2s-0.2-0.9,0-1.2s2.6-2,4-2.8c2-1.2,4.1-2.3,6.2-3.2c4.1-1.8,8.1-3.9,12.4-5.3c3.7-1.4,7.6-2.5,11.5-3.1
		c2.7-0.4,5.4-0.5,8.1-0.3c1.8,0,3.5,0.3,5.2,0.8c1.1,0.5,2.2,1.1,3.2,1.7c2.5,1.2,4,3.5,5.8,5.4
		C440.7,138.3,440.8,138.5,440.8,138.7z M440,140.7l-4.8,2.9c-0.8,0.6-1.5,1.3-2.1,2c-2,1.6-3.6,3.8-4.4,6.3c-0.6,1.7,0.3,3.6,2,4.2
		c0.3,0.1,0.7,0.2,1,0.2c1.8,0.1,3.6-0.6,4.9-1.8c3-2.4,4.1-5.6,4.2-9.3C440.7,143.7,440.4,142.2,440,140.7z"/>
	<path class="st0" d="M331.4,167.2c0.2,0.2,0.9,0.7,0.8,0.9c-0.1,0.7-0.6,1.2-1.3,1.2l-1.1,0.3l-7.2,3.4c-2.9,1.4-5.7,2.7-8.7,3.9
		l-14.5,5.9l-11,4.3c-3.6,1.3-7.2,2.4-10.9,3.5c-5.3,1.7-10.6,3.2-16,4.7c-2.8,0.8-5.7,1.5-8.6,2.1l-6,1.3c-4.1,1-8.2,1.9-12.4,2.4
		l-10,1.7l-12.3,1.4l-6.6,0.5c-3.1,0.3-6.3,0.7-9.5,0.9c-0.4,0.1-0.8,0-1.1-0.2c-0.3-0.3-0.5-0.8-0.3-1.2c0-0.2,0.6-0.4,1-0.4
		c3.5,0.1,7-0.2,10.5-0.8c1.3-0.2,2.7,0,4.1-0.2l13.1-1.6l9.9-1.4l7.5-1.4l4.8-0.6l3.6-1l8.1-2l6.5-1.7l9.3-2.8l5.9-1.7l6.4-2.2
		c1.7-0.5,3.3-1,4.9-1.7l6.7-2.6l10.2-3.9l9.8-4.3l10.5-4.7L331.4,167.2z"/>
	<path class="st0" d="M98.5,179.9c0.5-2.4,1.4-4.7,2.7-6.8c1.1-1.7,2.5-3.3,4.1-4.5c1.5-1.2,3.2-2,5.1-2.2c0.3-0.1,0.6,0.3,0.9,0.5
		s-0.5,0.8-0.8,0.9s-0.9,0.2-1.3,0.4c-1.7,0.5-3.2,1.4-4.3,2.8c-1.1,1.2-2,2.5-2.8,3.9c-1.5,2.6-2.3,5.4-1.3,8.4
		c0.3,1.4,0.7,2.7,1.3,4c0.8,1.3,1.7,2.5,2.8,3.6c0.7,0.7,1.5,1.2,2.4,1.7c1.1,0.8,2.4,1.4,3.8,1.6l0.8,0.4c0,0.4-0.1,0.7-0.4,1
		c-0.2,0.2-0.5,0.8-1,0.2s-1.4-0.5-2.1-0.7c-1.9-0.7-3.5-1.8-4.9-3.3c-1.3-1.3-2.8-2.5-3.4-4.3c-0.5-1.7-1-3.4-1.3-5.2
		C98.7,181.5,98.6,180.7,98.5,179.9z"/>
	<path class="st0" d="M504,152.3h1.1c0.1,0.3,0,0.6-0.1,0.9c-0.5,0.9-1,1.6-2,1.7s-0.7-0.1-0.8-0.3c-0.1-0.3-0.2-0.7-0.1-1
		C502.5,152.9,503.2,152.4,504,152.3z"/>
	<path class="st0" d="M496.3,143.3c0.5,0.4,1.4,0.7,1.5,1.2s-0.4,1.2-0.9,1.6c-0.4,0.3-1,0.5-1.5,0.6c-0.4-0.1-0.7-0.3-0.9-0.6
		c-0.2-0.4-0.5-1-0.3-1.4C494.6,143.9,495.4,143.4,496.3,143.3z"/>
	<path class="st0" d="M118.7,164.5c-0.1-0.3-0.2-0.8-0.4-1.4s2-0.1,2.7,0.5c0.4,0.3,0.4,0.8,0.2,1.1c-0.1,0.1-0.1,0.1-0.2,0.2h-0.9
		L118.7,164.5z"/>
</g>
<g id="Layer_2">
	<path class="st0" d="M416.2,287.1c13.6-1.7,27.8-9.7,39-17c8.8-5.7,17.6-11.5,26.6-17c4-2.5,10.4-4.7,13.7-6.5"/>
	<path class="st1" d="M416.5,288.1c14.9-2.2,28.4-10,40.8-18.1c6.7-4.4,13.4-8.8,20.2-13.1s12.3-6.2,18.5-9.4c1.2-0.6,0.1-2.3-1-1.7
		c-5.7,2.9-11.5,5.1-16.9,8.4l-20.3,13.1c-12.8,8.4-26.4,16.6-41.8,18.9C414.7,286.4,415.3,288.3,416.5,288.1L416.5,288.1z"/>
	<path class="st1" d="M162.4,232.9c-10.5,2.8-13.4,15.9-13.5,25.2s3.2,20.9,13.6,20.9c0.4,0,0.4-0.7,0-0.7
		c-10.5-0.1-12.8-13-12.8-21.1s3.2-21,12.9-23.6C163,233.5,162.8,232.7,162.4,232.9L162.4,232.9z"/>
	<path class="st1" d="M184.1,231.4c7.6,4.1,10.1,14.9,10.8,22.8c1,10.8-2.4,22.4-11.8,28.6c-0.4,0.3-0.1,0.9,0.3,0.7
		c9.5-6.3,12.8-17.3,12.3-28.2c-0.3-8.4-3.2-20.2-11.2-24.6C184.1,230.5,183.7,231.2,184.1,231.4L184.1,231.4z"/>
	<path class="st1" d="M206.4,242.6c0,12.8,0.9,25.5,1,38.3c-0.1,0.2,0,0.4,0.2,0.5c0.2,0.1,0.4,0,0.5-0.2c0.1-0.1,0.1-0.3,0-0.4
		c0-12.8-0.9-25.5-1-38.3C207.1,242.2,206.4,242.2,206.4,242.6L206.4,242.6z"/>
	<path class="st1" d="M213.6,226.1c7.3,9.8,13.7,20.3,20.3,30.6c0.1,0.2,0.4,0.3,0.5,0.1c0.2-0.1,0.3-0.4,0.2-0.5l0,0
		c-6.6-10.3-13-20.8-20.4-30.5C213.9,225.4,213.3,225.7,213.6,226.1L213.6,226.1z"/>
	<path class="st1" d="M244.1,229c-0.8,18.7,0.5,37.5-0.2,56.2c0,0.5,0.7,0.5,0.8,0c0.6-18.7-0.7-37.5,0.2-56.2
		c0-0.2-0.2-0.4-0.4-0.4C244.3,228.6,244.1,228.8,244.1,229L244.1,229L244.1,229z"/>
	<path class="st1" d="M271.3,226.1c-3.9-1-7.5-0.4-9.8,3.2s0.6,7.6,3.4,10c9.2,7.9,27.8,13.6,22.7,29.3c-0.2,0.5,0.6,0.7,0.7,0.2
		c2.7-8.1-1.5-14.5-7.6-19.7c-3.4-2.9-7.3-5.1-11.2-7.5c-2.9-1.5-5.4-3.7-7.3-6.3c-4.2-6.2,4.4-9.6,9-8.5
		C271.6,226.9,271.8,226.2,271.3,226.1L271.3,226.1z"/>
	<path class="st1" d="M252.2,263c2.6,1.3,1.4,4.8,2.1,7.1s1.8,2.2,2.9,2.9c3.5,2,7.5,2.8,11.5,2.4c0.4,0,0.4-0.8,0-0.7
		c-4.2,0.5-9.5-0.8-12.7-3.5s0.2-7-3.4-8.9C252.2,262.1,251.8,262.8,252.2,263L252.2,263z"/>
	<path class="st1" d="M303.8,217.3c1.2,6.3-0.2,12.6,0.5,18.9c0,0.5,0.8,0.5,0.7,0c-0.7-6.3,0.7-12.7-0.5-19.1
		C304.4,216.7,303.7,216.9,303.8,217.3L303.8,217.3z"/>
	<path class="st1" d="M304.8,245.1v19.8c-0.1,0.2,0,0.4,0.2,0.5s0.4,0,0.5-0.2c0.1-0.1,0.1-0.3,0-0.4l0,0c0.1-0.2,0-0.4-0.2-0.5
		s-0.4,0-0.5,0.2c-0.1,0.1-0.1,0.3,0,0.4l0,0c-0.1,0.2,0,0.4,0.2,0.5s0.4,0,0.5-0.2c0.1-0.1,0.1-0.3,0-0.4v-19.8
		c0.1-0.2,0-0.4-0.2-0.5c-0.2-0.1-0.4,0-0.5,0.2C304.7,244.8,304.7,245,304.8,245.1z"/>
	<path class="st1" d="M318.5,227.3c0.8,6.5,0.5,13.6,0.2,20.2c0,0.4,0.7,0.4,0.7,0c0.4-6.7,0.7-13.8-0.2-20.4
		C319.1,226.7,318.4,226.9,318.5,227.3z"/>
	<path class="st1" d="M325.4,207.6c0.5,4.5,0.9,9,1.2,13.5c0.1,0.5,0.8,0.5,0.8,0c-0.4-4.5-0.8-9-1.3-13.5
		C326,207.2,325.3,207.2,325.4,207.6z"/>
	<path class="st1" d="M285,221.1v16.2c-0.1,0.2,0,0.4,0.2,0.5c0.2,0.1,0.4,0,0.5-0.2c0.1-0.1,0.1-0.3,0-0.4v-16.2
		C285.7,220.7,285,220.7,285,221.1z"/>
	<path class="st1" d="M327.1,248.1v9.6c0,0.2,0.2,0.4,0.4,0.4c0.2,0,0.4-0.2,0.4-0.4c0-3.2-0.1-6.4-0.1-9.6
		C327.8,247.7,327.1,247.7,327.1,248.1L327.1,248.1z"/>
	<path class="st1" d="M344,203.1c0,6.6,0.1,13.3-0.2,20c0,0.4,0.7,0.4,0.7,0c0.4-6.7,0.2-13.4,0.2-20c0.1-0.2,0-0.4-0.2-0.5
		c-0.2-0.1-0.4,0-0.5,0.2C343.9,202.8,343.9,203,344,203.1z"/>
	<path class="st1" d="M344,232.4c0.1,6.6-0.6,13.3,0.5,19.9c0.1,0.5,0.8,0.3,0.7-0.2c-1.1-6.5-0.4-13.1-0.5-19.7
		c0.1-0.2,0-0.4-0.2-0.5c-0.2-0.1-0.4,0-0.5,0.2C343.9,232.1,343.9,232.3,344,232.4z"/>
	<path class="st1" d="M360.2,194.4c6.7,1.2,9.6,8.3,10.2,14.3s-3.9,14-10.2,16.5c-0.4,0.2-0.2,0.9,0.2,0.7
		c6.4-2.7,10.6-8.9,10.8-15.8c0.3-6.7-3.7-15.1-10.8-16.4C360,193.6,359.8,194.3,360.2,194.4z"/>
	<path class="st1" d="M365.6,231.7c2.8,2.9,2.7,7.3,4.2,10.9c0.2,0.4,0.9,0,0.7-0.4c-1.6-3.7-1.5-8.1-4.4-11.1
		C365.8,230.8,365.2,231.3,365.6,231.7L365.6,231.7z"/>
	<path class="st1" d="M374.4,253.1c2.6,7.8,6.1,16.1,10.7,22.9s7.3,9,14.2,9c0.2,0.1,0.4,0,0.5-0.2s0-0.4-0.2-0.5
		c-0.1-0.1-0.3-0.1-0.4,0c-3.3-0.1-5.8-0.3-8.5-2.6s-4.9-5.7-6.8-8.8c-3.8-6.3-6.7-13-8.8-20C375,252.5,374.3,252.7,374.4,253.1
		L374.4,253.1z"/>
	<path class="st1" d="M404.4,259.6c14.1,4.7,13.5,25.3,1.6,32c-0.2,0-0.4,0.2-0.3,0.5c0,0.2,0.2,0.4,0.5,0.3c0.1,0,0.2-0.1,0.3-0.2
		c12.5-7,12.9-28.4-1.8-33.3C404.1,258.7,403.9,259.4,404.4,259.6L404.4,259.6z"/>
	<path class="st1" d="M386.7,175.6c0.7,5.5,0.4,11.1,0.5,16.6s0.6,11.4,0.3,17c0,0.5,0.7,0.5,0.8,0c0.2-5-0.2-10.1-0.2-15.2
		s0.2-12.3-0.6-18.4C387.4,175.1,386.7,175.1,386.7,175.6L386.7,175.6z"/>
	<path class="st1" d="M386.5,219.4c0,6-0.4,12.5,0.2,18.5c0,0.5,0.8,0.5,0.7,0c-0.6-6-0.1-12.5-0.1-18.5c0-0.2-0.2-0.4-0.4-0.4
		C386.7,219,386.5,219.2,386.5,219.4L386.5,219.4z"/>
	<path class="st1" d="M362.5,166.1c-4.4,2.7-7.5,5.6-9.1,10.7c-1,3.1-0.9,6.9,2.9,7.3c0.5,0.1,0.5-0.7,0-0.7
		c-4.4-0.5-2.4-6.2-1.3-8.7s4.5-5.9,7.9-8C363.3,166.5,362.9,165.8,362.5,166.1z"/>
	<path class="st1" d="M401.8,159.4c4.9,3,10.5,9.3,10.8,15.3c0.1,0.5,0.8,0.5,0.8,0c-0.3-6.2-6.1-12.8-11.2-16
		c-0.2-0.1-0.4,0-0.5,0.2C401.5,159,401.6,159.3,401.8,159.4L401.8,159.4z"/>
	<path class="st1" d="M414.4,190.2c-0.8,8.4-3.1,14.8-9.8,20.3c-0.3,0.3,0.2,0.8,0.6,0.5c6.8-5.6,9.1-12.2,9.9-20.8
		C415.2,189.8,414.4,189.8,414.4,190.2z"/>
	<path class="st1" d="M407.6,212.2c4,2,6.3,6,6.3,8.7c-0.1,0.2,0,0.4,0.2,0.5c0.2,0.1,0.4,0,0.5-0.2c0.1-0.1,0.1-0.3,0-0.4
		c0-3.2-2.4-7.2-6.7-9.3C407.5,211.4,407.1,212,407.6,212.2z"/>
	<path class="st1" d="M431.5,189.4c-0.6,5.6-1.8,11.1-3.5,16.4c-0.2,0.5,0.6,0.7,0.7,0.2c1.8-5.4,3-10.9,3.5-16.6
		c0.1-0.2,0-0.4-0.2-0.5c-0.2-0.1-0.4,0-0.5,0.2C431.4,189.1,431.4,189.3,431.5,189.4L431.5,189.4z"/>
	<path class="st1" d="M425.8,214.7c-2.7,6-4.1,12.5-5.8,18.8c-0.2,0.4,0.6,0.6,0.7,0.2c1.7-6.3,3.1-12.7,5.8-18.6
		C426.7,214.7,426,214.3,425.8,214.7z"/>
	<path class="st1" d="M441.1,173.5c2.4,6.7,4,13.6,6.5,20.2c1.5,3.7,3.1,7.5,4.5,11.3c2.6,6.9,4.8,14.3,8.2,20.9
		c0.1,0.2,0.4,0.3,0.6,0.2c0.2-0.1,0.3-0.4,0.1-0.6c-3.6-6.8-5.8-14.6-8.6-21.9c-3.8-10-7-20.2-10.5-30.3c-0.1-0.2-0.3-0.4-0.5-0.3
		C441.2,173.1,441,173.3,441.1,173.5L441.1,173.5z"/>
	<path class="st1" d="M475.6,175.6v18.8c0,0.2,0.2,0.4,0.4,0.4c0.2,0,0.4-0.2,0.4-0.4v-18.8c0-0.2-0.2-0.4-0.4-0.4
		C475.8,175.2,475.6,175.4,475.6,175.6z"/>
	<path class="st1" d="M476.1,205.2c0,6.9,0.1,13.8,0,20.7c0,0.2,0.2,0.4,0.4,0.4c0.2,0,0.4-0.2,0.4-0.4v-20.7c0-0.2-0.2-0.4-0.4-0.4
		C476.3,204.8,476.1,205,476.1,205.2z"/>
	<path class="st1" d="M496.5,171.6c6.7,6,7.2,16.3,1.2,23c-1.9,2.1-4.3,3.7-7,4.6c-0.4,0.2-0.2,0.9,0.2,0.7
		c8.9-2.9,13.9-12.4,11-21.4c-0.9-2.9-2.6-5.5-4.9-7.5C496.7,170.7,496.1,171.3,496.5,171.6z"/>
	<path class="st1" d="M495.9,204.5c4.2,3.9,3.7,32,12.2,29.3c0.2-0.1,0.4-0.3,0.3-0.5c-0.1-0.2-0.3-0.4-0.5-0.3l0,0
		c-6.9,2.2-7.5-25.4-11.5-29C496.1,203.6,495.5,204.2,495.9,204.5z"/>
	<path class="st1" d="M518,218.7c9.9,4.9,4.3,22.9-6.2,22.8c-0.5,0-0.4,0.8,0,0.8c11.2,0.1,17.1-19,6.6-24.2
		C517.9,217.9,517.5,218.5,518,218.7L518,218.7z"/>
	<path class="st1" d="M154.4,209c-9.8,0.1-18.4,3.1-25.4,10.1s-11.1,18.3-12.5,28.8c-1.4,10.5,0.2,22.7,6.7,32
		c6.2,8.9,16.1,14.6,26.9,15.5c0.4,0.1,0.4-0.7,0-0.7c-11.2-0.9-20.8-7.4-27.1-16.4s-6.7-19-5.9-28.9s4.6-20.7,11.5-28.8
		c6.9-8.1,16-10.7,25.8-10.8c0.2,0,0.4-0.2,0.4-0.4C154.8,209.2,154.6,209,154.4,209L154.4,209z"/>
	<path class="st1" d="M186.8,212c1.2,4.1,0.8,8.4,1.2,12.6c0,0.4,0.8,0.4,0.7,0c-0.4-4.3,0-8.6-1.2-12.8
		C187.4,211.3,186.7,211.5,186.8,212z"/>
	<path class="st1" d="M527.3,240.9c10.8-2.5,27.2,14.8,13.2,21.5c-1.2,0.5-0.2,2.2,1,1.7c16.2-7.7-1.7-28.2-14.8-25.2
		C525.5,239.2,526,241.2,527.3,240.9L527.3,240.9z"/>
	<path class="st1" d="M535,269.9l0.6,0.7c0.9,0.9,2.4-0.5,1.4-1.4l-0.6-0.7C535.5,267.6,534,269,535,269.9z"/>
	<path class="st1" d="M419.8,181.3c-0.8,1-1.1,2.4,0.1,3.2s0.8-0.4,0.4-0.6s-0.4-1.4,0.1-2c0.2-0.2,0.2-0.4,0-0.6
		S420,181.1,419.8,181.3L419.8,181.3L419.8,181.3z"/>
</g>
</svg>
